<?xml version="1.0" encoding="UTF-8"?>
<svg width="25px" height="30px" viewBox="0 0 25 30" version="1.1" xmlns="http://www.w3.org/2000/svg" xmlns:xlink="http://www.w3.org/1999/xlink">
    <!-- Generator: Sketch 50.2 (55047) - http://www.bohemiancoding.com/sketch -->
    <title>android - FontAwesome</title>
    <desc>Created with Sketch.</desc>
    <defs></defs>
    <g id="design" stroke="none" stroke-width="1" fill="none" fill-rule="evenodd">
        <g id="Goldcoin-Downloads-web" transform="translate(-485.000000, -623.000000)" fill="#13161F">
            <g id="wallets" transform="translate(215.000000, 494.000000)">
                <g id="box2" transform="translate(200.000000, 104.000000)">
                    <g id="Group-6">
                        <path d="M78.7535511,31.2917259 C79.1441761,31.2917259 79.4460227,30.9721236 79.4460227,30.5992543 C79.4460227,30.2263849 79.1441761,29.9067827 78.7535511,29.9067827 C78.3806818,29.9067827 78.0788352,30.2263849 78.0788352,30.5992543 C78.0788352,30.9721236 78.3806818,31.2917259 78.7535511,31.2917259 Z M86.2464489,31.2917259 C86.6193182,31.2917259 86.9211648,30.9721236 86.9211648,30.5992543 C86.9211648,30.2263849 86.6193182,29.9067827 86.2464489,29.9067827 C85.8558239,29.9067827 85.5539773,30.2263849 85.5539773,30.5992543 C85.5539773,30.9721236 85.8558239,31.2917259 86.2464489,31.2917259 Z M71.8288352,34.5587713 C72.8231534,34.5587713 73.6399148,35.3755327 73.6399148,36.3698509 L73.6399148,44.004794 C73.6399148,45.0168679 72.8409091,45.8336293 71.8288352,45.8336293 C70.8167614,45.8336293 70,45.0168679 70,44.004794 L70,36.3698509 C70,35.3755327 70.8167614,34.5587713 71.8288352,34.5587713 Z M90.649858,34.8961293 L90.649858,46.7214134 C90.649858,47.8045099 89.7798295,48.6745384 88.7144886,48.6745384 L87.3828125,48.6745384 L87.3828125,52.7050781 C87.3828125,53.717152 86.5660511,54.5339134 85.5539773,54.5339134 C84.5419034,54.5339134 83.725142,53.717152 83.725142,52.7050781 L83.725142,48.6745384 L81.274858,48.6745384 L81.274858,52.7050781 C81.274858,53.717152 80.4580966,54.5339134 79.4460227,54.5339134 C78.4517045,54.5339134 77.6349432,53.717152 77.6349432,52.7050781 L77.6171875,48.6745384 L76.303267,48.6745384 C75.2201705,48.6745384 74.350142,47.8045099 74.350142,46.7214134 L74.350142,34.8961293 L90.649858,34.8961293 Z M86.5305398,27.7050781 C89.0163352,28.9834872 90.703125,31.4337713 90.703125,34.2569247 L74.2791193,34.2569247 C74.2791193,31.4337713 75.9659091,28.9834872 78.4694602,27.7050781 L77.2088068,25.3790838 C77.1377841,25.254794 77.1732955,25.0949929 77.2975852,25.0239702 C77.421875,24.9707031 77.5816761,25.0062145 77.6526989,25.1305043 L78.931108,27.4742543 C80.0142045,26.9948509 81.2215909,26.7285156 82.5,26.7285156 C83.7784091,26.7285156 84.9857955,26.9948509 86.068892,27.4742543 L87.3473011,25.1305043 C87.4183239,25.0062145 87.578125,24.9707031 87.7024148,25.0239702 C87.8267045,25.0949929 87.8622159,25.254794 87.7911932,25.3790838 L86.5305398,27.7050781 Z M95,36.3698509 L95,44.004794 C95,45.0168679 94.1832386,45.8336293 93.1711648,45.8336293 C92.1768466,45.8336293 91.3600852,45.0168679 91.3600852,44.004794 L91.3600852,36.3698509 C91.3600852,35.357777 92.1768466,34.5587713 93.1711648,34.5587713 C94.1832386,34.5587713 95,35.357777 95,36.3698509 Z" id="android---FontAwesome"></path>
                    </g>
                </g>
            </g>
        </g>
    </g>
</svg>