<?xml version="1.0" encoding="UTF-8"?>
<svg width="25px" height="30px" viewBox="0 0 25 30" version="1.1" xmlns="http://www.w3.org/2000/svg" xmlns:xlink="http://www.w3.org/1999/xlink">
    <!-- Generator: Sketch 50.2 (55047) - http://www.bohemiancoding.com/sketch -->
    <title>apple - FontAwesome</title>
    <desc>Created with Sketch.</desc>
    <defs></defs>
    <g id="design" stroke="none" stroke-width="1" fill="none" fill-rule="evenodd">
        <g id="Goldcoin-Downloads-web" transform="translate(-685.000000, -623.000000)" fill="#13161F">
            <g id="wallets" transform="translate(215.000000, 494.000000)">
                <g id="box3" transform="translate(400.000000, 104.000000)">
                    <path d="M95,46.8054559 C94.5513281,48.2232592 93.833453,49.7307968 92.7925341,51.2921752 C91.2491027,53.6432161 89.7056712,54.8097631 88.1801866,54.8097631 C87.5699928,54.8097631 86.7444365,54.6123475 85.6676238,54.235463 C84.6087581,53.8406317 83.6934673,53.661163 82.9576454,53.661163 C82.2397703,53.661163 81.3783202,53.8585786 80.4091888,54.2534099 C79.4221106,54.6661881 78.632448,54.8636037 78.040201,54.8636037 C76.1916726,54.8636037 74.4149318,53.3022254 72.638191,50.2153625 C70.8973439,47.1284996 70,44.1313711 70,41.1880833 C70,38.4422111 70.6819813,36.2167983 72.0279971,34.4759512 C73.3740129,32.753051 75.0610194,31.8916009 77.1249103,31.8916009 C78.0043073,31.8916009 79.0452261,32.0710696 80.3015075,32.4300072 C81.5398421,32.7889447 82.3653984,32.9684135 82.7781766,32.9684135 C83.298636,32.9684135 84.1600861,32.7709978 85.34458,32.3582197 C86.5290739,31.9633884 87.5699928,31.7480258 88.4493898,31.7480258 C89.88514,31.7480258 91.1593683,32.1428571 92.2720747,32.9145729 C92.9002154,33.3452979 93.5283561,33.9554917 94.1385499,34.7092606 C93.2053123,35.4989232 92.5233309,36.1988514 92.0926059,36.8269921 C91.3208902,37.9396985 90.9260589,39.178033 90.9260589,40.5419957 C90.9260589,42.0136396 91.338837,43.3596554 92.1643934,44.5441493 C92.9899497,45.7286432 93.9411342,46.4824121 95,46.8054559 Z M88.2519742,25.7537688 C88.2519742,26.4895908 88.0725054,27.3151472 87.7315147,28.1945441 C87.3725772,29.091888 86.816224,29.9174444 86.0624551,30.6712132 C85.4163676,31.3173008 84.77028,31.7480258 84.1241924,31.9633884 C83.7114142,32.0890165 83.1012204,32.1966978 82.2577172,32.2684853 C82.2936109,30.4917444 82.7602297,28.948313 83.6575736,27.6561378 C84.5549174,26.3639627 86.0624551,25.4845657 88.1442929,25 C88.1801866,25.1615219 88.2160804,25.28715 88.2340273,25.3948313 C88.2340273,25.5204594 88.2519742,25.6281407 88.2519742,25.7537688 Z" id="apple---FontAwesome"></path>
                </g>
            </g>
        </g>
    </g>
</svg>