<?xml version="1.0" encoding="UTF-8"?>
<svg width="14px" height="13px" viewBox="0 0 14 13" version="1.1" xmlns="http://www.w3.org/2000/svg" xmlns:xlink="http://www.w3.org/1999/xlink">
    <!-- Generator: Sketch 50.2 (55047) - http://www.bohemiancoding.com/sketch -->
    <title>download - FontAwesome</title>
    <desc>Created with Sketch.</desc>
    <defs></defs>
    <g id="design" stroke="none" stroke-width="1" fill="none" fill-rule="evenodd">
        <g id="Goldcoin-Downloads-web" transform="translate(-852.000000, -712.000000)" fill="#103C66">
            <g id="wallets" transform="translate(215.000000, 494.000000)">
                <g id="box4" transform="translate(600.000000, 104.000000)">
                    <g id="Group-4" transform="translate(37.000000, 106.000000)">
                        <path d="M10.4648212,19.0345079 C10.4648212,18.7471509 10.2277275,18.5090551 9.94158009,18.5090551 C9.65543264,18.5090551 9.41833904,18.7471509 9.41833904,19.0345079 C9.41833904,19.3218648 9.65543264,19.5599606 9.94158009,19.5599606 C10.2277275,19.5599606 10.4648212,19.3218648 10.4648212,19.0345079 Z M12.5577854,19.0345079 C12.5577854,18.7471509 12.3206918,18.5090551 12.0345443,18.5090551 C11.7483969,18.5090551 11.5113033,18.7471509 11.5113033,19.0345079 C11.5113033,19.3218648 11.7483969,19.5599606 12.0345443,19.5599606 C12.3206918,19.5599606 12.5577854,19.3218648 12.5577854,19.0345079 Z M13.6042675,17.1954232 L13.6042675,19.822687 C13.6042675,20.2578275 13.2527149,20.6108661 12.8194059,20.6108661 L0.784861586,20.6108661 C0.351552586,20.6108661 0,20.2578275 0,19.822687 L0,17.1954232 C0,16.7602826 0.351552586,16.4072441 0.784861586,16.4072441 L4.58653489,16.4072441 L5.6902465,17.5238312 C5.99274524,17.8193984 6.38517603,17.9836023 6.80213375,17.9836023 C7.21909147,17.9836023 7.61152226,17.8193984 7.91402099,17.5238312 L9.02590824,16.4072441 L12.8194059,16.4072441 C13.2527149,16.4072441 13.6042675,16.7602826 13.6042675,17.1954232 Z M10.947184,12.5238198 C11.0289404,12.7208646 10.9880622,12.9507502 10.832725,13.0985338 L7.17003762,16.776703 C7.07192992,16.8834356 6.93294401,16.9326968 6.80213375,16.9326968 C6.67132348,16.9326968 6.53233758,16.8834356 6.43422988,16.776703 L2.77154248,13.0985338 C2.61620529,12.9507502 2.57532708,12.7208646 2.6570835,12.5238198 C2.73883991,12.3349852 2.92687967,12.203622 3.13944635,12.203622 L5.23241058,12.203622 L5.23241058,8.52545275 C5.23241058,8.23809578 5.46950418,8 5.75565163,8 L7.84861586,8 C8.13476332,8 8.37185692,8.23809578 8.37185692,8.52545275 L8.37185692,12.203622 L10.4648212,12.203622 C10.6773878,12.203622 10.8654276,12.3349852 10.947184,12.5238198 Z" id="download---FontAwesome"></path>
                    </g>
                </g>
            </g>
        </g>
    </g>
</svg>