<?xml version="1.0" encoding="UTF-8"?>
<svg width="25px" height="25px" viewBox="0 0 25 25" version="1.1" xmlns="http://www.w3.org/2000/svg" xmlns:xlink="http://www.w3.org/1999/xlink">
    <!-- Generator: Sketch 50.2 (55047) - http://www.bohemiancoding.com/sketch -->
    <title>github-square - FontAwesome</title>
    <desc>Created with Sketch.</desc>
    <defs></defs>
    <g id="design" stroke="none" stroke-width="1" fill="none" fill-rule="evenodd">
        <g id="Goldcoin-Downloads-web" transform="translate(-1090.000000, -623.000000)" fill="#13161F">
            <g id="wallets" transform="translate(215.000000, 494.000000)">
                <g id="box5" transform="translate(800.000000, 104.000000)">
                    <path d="M83.4472656,42.4479167 C83.4798177,42.3990885 83.4635417,42.3014323 83.3984375,42.2363281 C83.3170573,42.171224 83.219401,42.1549479 83.1705729,42.203776 C83.1380208,42.2526042 83.1542969,42.3502604 83.219401,42.4153646 C83.3007812,42.4804688 83.3984375,42.4967448 83.4472656,42.4479167 Z M82.9915365,41.780599 C82.9427083,41.7154948 82.8613281,41.6829427 82.796224,41.7154948 C82.7473958,41.7480469 82.7473958,41.8457031 82.796224,41.9108073 C82.8613281,41.9921875 82.9427083,42.0247396 82.9915365,41.9921875 C83.0403646,41.9596354 83.0403646,41.8619792 82.9915365,41.780599 Z M82.3242188,41.1295573 C82.3404948,41.0970052 82.3079427,41.031901 82.2428385,40.999349 C82.1940104,40.9830729 82.1289062,40.9830729 82.1126302,41.031901 C82.0800781,41.0807292 82.1126302,41.1295573 82.1777344,41.1621094 C82.2428385,41.1783854 82.3079427,41.1783854 82.3242188,41.1295573 Z M82.6660156,41.5039062 C82.6985677,41.4713542 82.6985677,41.389974 82.6334635,41.3411458 C82.5846354,41.2760417 82.5032552,41.2597656 82.4707031,41.2923177 C82.421875,41.3411458 82.438151,41.40625 82.4869792,41.4713542 C82.5358073,41.5201823 82.6171875,41.5527344 82.6660156,41.5039062 Z M84.0657552,42.7246094 C84.0820312,42.6595052 84.0169271,42.578125 83.9192708,42.5455729 C83.8216146,42.5130208 83.7402344,42.5455729 83.7076823,42.6106771 C83.6914062,42.6757813 83.7565104,42.7571615 83.8541667,42.7897135 C83.9518229,42.8222656 84.0332031,42.7897135 84.0657552,42.7246094 Z M84.749349,42.7734375 C84.749349,42.7083333 84.6679688,42.6432292 84.5540365,42.6432292 C84.4563802,42.6432292 84.391276,42.7083333 84.391276,42.7734375 C84.391276,42.8385417 84.4726562,42.9036458 84.5703125,42.9036458 C84.6679688,42.9036458 84.749349,42.8385417 84.749349,42.7734375 Z M85.3841146,42.6595052 C85.3678385,42.594401 85.2701823,42.561849 85.172526,42.578125 C85.0748698,42.594401 85.0097656,42.6595052 85.0260417,42.7246094 C85.0423177,42.7897135 85.1236979,42.8385417 85.2213542,42.8222656 C85.3190104,42.8059896 85.3841146,42.7246094 85.3841146,42.6595052 Z M95.8333333,37.5 C95.8333333,32.8938802 92.1061198,29.1666667 87.5,29.1666667 C82.8938802,29.1666667 79.1666667,32.8938802 79.1666667,37.5 C79.1666667,41.1783854 81.5592448,44.3033854 84.8632812,45.4101562 C85.2864583,45.4915365 85.4329427,45.2311198 85.4329427,45.0032552 C85.4329427,44.8079427 85.4329427,44.156901 85.4166667,43.4570312 C85.4166667,43.4570312 83.1054688,43.9615885 82.6171875,42.4641927 C82.6171875,42.4641927 82.2428385,41.5039062 81.6894531,41.2597656 C81.6894531,41.2597656 80.9407552,40.7389323 81.7545573,40.7389323 C81.7545573,40.7389323 82.5683594,40.8040365 83.0240885,41.6015625 C83.7565104,42.8873698 84.9772135,42.5130208 85.4492188,42.3014323 C85.530599,41.7643229 85.7421875,41.389974 85.9863281,41.1783854 C84.1308594,40.9667969 82.1777344,40.250651 82.1777344,37.0605469 C82.1777344,36.1490885 82.5032552,35.4166667 83.0403646,34.8307292 C82.9589844,34.6191406 82.6660156,33.7727865 83.1217448,32.6171875 C83.8216146,32.405599 85.4166667,33.4798177 85.4166667,33.4798177 C86.0839844,33.2845052 86.7838542,33.203125 87.5,33.203125 C88.2161458,33.203125 88.9160156,33.2845052 89.5833333,33.4798177 C89.5833333,33.4798177 91.1783854,32.405599 91.8782552,32.6171875 C92.3339844,33.7727865 92.0410156,34.6191406 91.9596354,34.8307292 C92.4967448,35.4166667 92.8222656,36.1490885 92.8222656,37.0605469 C92.8222656,40.2669271 90.8691406,40.9667969 89.0136719,41.1783854 C89.3066406,41.4388021 89.5833333,41.9433594 89.5833333,42.7246094 C89.5833333,43.8313802 89.5670573,44.7265625 89.5670573,45.0032552 C89.5670573,45.2311198 89.7135417,45.4915365 90.1367188,45.4101562 C93.4407552,44.3033854 95.8333333,41.1783854 95.8333333,37.5 Z M100,29.6875 L100,45.3125 C100,47.9003906 97.9003906,50 95.3125,50 L79.6875,50 C77.0996094,50 75,47.9003906 75,45.3125 L75,29.6875 C75,27.0996094 77.0996094,25 79.6875,25 L95.3125,25 C97.9003906,25 100,27.0996094 100,29.6875 Z" id="github-square---FontAwesome"></path>
                </g>
            </g>
        </g>
    </g>
</svg>