<?xml version="1.0" encoding="UTF-8"?>
<svg width="25px" height="30px" viewBox="0 0 25 30" version="1.1" xmlns="http://www.w3.org/2000/svg" xmlns:xlink="http://www.w3.org/1999/xlink">
    <!-- Generator: Sketch 50.2 (55047) - http://www.bohemiancoding.com/sketch -->
    <title>linux - FontAwesome</title>
    <desc>Created with Sketch.</desc>
    <defs></defs>
    <g id="design" stroke="none" stroke-width="1" fill="none" fill-rule="evenodd">
        <g id="Goldcoin-Downloads-web" transform="translate(-885.000000, -623.000000)" fill="#13161F">
            <g id="wallets" transform="translate(215.000000, 494.000000)">
                <g id="box4" transform="translate(600.000000, 104.000000)">
                    <g id="Group-8">
                        <path d="M80.7772241,31.7462291 C80.252016,31.7134036 80.2191905,32.090897 80.383318,32.0744842 C80.5638583,32.0744842 80.448969,31.7790546 80.7772241,31.7462291 Z M82.2071853,31.7811062 C82.1271731,31.7175068 81.9671488,31.6887845 81.7291638,31.7954674 C81.8768786,31.7544355 81.9548392,31.8118801 82.016387,31.873428 L82.2071853,31.7811062 Z M82.2071853,31.7811062 C82.2871975,31.8447057 82.2871975,31.9431822 82.2051337,31.9760077 C82.1230699,32.0006268 82.0779349,31.9349758 82.016387,31.873428 L82.2071853,31.7811062 Z M76.4442571,38.9842536 C76.2965423,38.9350153 76.3293678,39.2304449 76.181653,39.4602235 C76.0667637,39.6735893 75.7713342,39.8377168 76.0011127,39.8705423 C76.0831765,39.8869551 76.312955,39.690002 76.4114316,39.4602235 C76.4934953,39.1812066 76.5755591,39.0334919 76.4442571,38.9842536 Z M90.4771617,44.8764322 C90.4771617,44.5810027 89.8370643,44.3019859 89.5744602,44.1870966 C90.0176046,42.7099487 89.8206515,42.1190896 89.5252219,40.7240055 C89.2954434,39.6735893 88.3270909,38.2456797 87.5721042,37.8025353 C87.7690573,37.9666629 88.1301379,38.4426327 88.5076312,39.1647939 C89.1641413,40.3957504 89.8206515,42.2175661 89.3939199,43.7275395 C89.2297924,44.3183986 88.8358863,44.4004624 88.5732822,44.4168751 C87.4243894,44.5481772 88.0973123,43.0382038 87.6213425,40.9866096 C87.0797216,38.688824 86.521688,38.5246965 86.3903859,38.3441562 C85.717463,35.357035 84.9788891,35.6524646 84.7655233,34.5363973 C84.584983,33.5352193 85.6353993,32.7145816 84.2074897,32.4355648 C83.7643453,32.353501 83.1406607,31.9103567 82.8944694,31.8775312 C82.6482781,31.8447057 82.516976,30.219843 83.4360902,30.1706048 C84.3387917,30.1049537 84.5029192,31.1881955 84.3387917,31.6149271 C84.0761876,32.0416587 84.3552045,32.2057862 84.7983488,32.0580715 C85.1594294,31.9431822 84.9296508,30.9912425 85.0117146,30.8599404 C84.7819361,29.4812691 84.2074897,29.284316 83.6166305,29.1694268 C81.3516705,29.3499671 82.3692612,31.8447057 82.1394827,31.6149271 C81.8112276,31.2702593 80.8592879,31.5821016 80.8592879,31.3687358 C80.8757006,30.088541 80.448969,29.3499671 79.8581099,29.3335543 C79.2015997,29.3171416 78.9389957,30.2362558 78.9061702,30.7614639 C78.8569319,31.2538465 79.185187,32.28785 79.4313783,32.2057862 C79.5955058,32.156548 79.8745226,31.8282929 79.5790931,31.8447057 C79.4313783,31.8447057 79.2015997,31.4836251 79.1687742,31.0568935 C79.1523615,30.6301619 79.316489,30.2034303 79.8745226,30.219843 C80.51462,30.2362558 80.51462,31.5164506 80.448969,31.5656888 C80.2356032,31.7134036 79.9729992,31.9924204 79.9401737,32.0416587 C79.7268079,32.3863265 79.316489,32.4848031 79.1523615,32.6325178 C78.8733447,32.9279474 78.8076936,33.2562025 79.0210594,33.3710918 C79.7760461,33.7978234 79.5298548,34.290206 80.5802711,34.3230315 C81.2696067,34.355857 81.7784021,34.224555 82.254372,34.0768402 C82.6154525,33.9619509 83.7807581,33.7157596 84.0269494,33.289028 C84.1418387,33.1084877 84.2731407,33.1084877 84.3552045,33.157726 C84.519332,33.2397897 84.5521575,33.5516321 84.1418387,33.6501086 C83.5673923,33.8142361 82.9929459,34.1260784 82.4677378,34.3230315 C81.9589424,34.5363973 81.7948149,34.6184611 81.318845,34.7005248 C80.2356032,34.8974779 79.4313783,34.3066187 80.1535395,35.0123672 C80.3997308,35.2421457 80.6295093,35.3898605 81.253194,35.3734477 C82.6318653,35.3242095 84.1582514,33.6665213 84.3059662,34.4050953 C84.3387917,34.5692228 83.8792346,34.7661758 83.518154,34.9467161 C82.2379592,35.5704008 81.3352577,36.8177701 80.51462,36.3910385 C79.7760461,35.9971324 79.0374722,34.1753167 79.0538849,34.9959544 C79.0702977,36.2597365 77.3961968,37.3758037 78.1675962,38.8201261 C77.6588009,38.9514281 76.5263209,41.3641029 76.3621933,42.6114722 C76.2637168,43.3336334 76.4278443,44.2199221 76.247304,44.7123047 C76.0011127,45.4344659 74.8850455,44.022969 75.246126,42.2996299 C75.3117771,42.0042003 75.246126,41.9385493 75.1640623,42.0862641 C74.7209179,42.890489 74.9671092,44.022969 75.3281898,44.8107812 C75.4759046,45.1554491 75.8533979,45.3031638 76.1324148,45.5985934 C76.7068611,46.2551036 78.9718212,47.9292045 79.3657273,48.3395233 C79.8745226,48.8154932 79.7268079,49.9315604 78.6763916,50.0464497 C79.2180125,51.0640405 79.7432206,51.162517 79.7268079,52.8202051 C80.3504925,52.4919501 80.1043012,51.7697889 79.8416971,51.3102318 C79.6611568,50.9819767 79.4313783,50.8342619 79.4806166,50.7521981 C79.5134421,50.7029599 79.8416971,50.4239431 80.0222374,50.6373089 C80.5802711,51.2609935 81.6306873,51.3758828 82.7467546,51.228168 C83.8792346,51.096866 85.0937784,50.7029599 85.651812,49.8002584 C85.9144161,49.3735268 86.0949564,49.225812 86.2098456,49.3078758 C86.3411477,49.3735268 86.3903859,49.6689564 86.3739732,50.161339 C86.3575604,50.6865471 86.1441946,51.228168 85.9964798,51.6713124 C85.8487651,52.1801077 85.7995268,52.5247756 86.2919094,52.5411883 C86.4232114,51.6220741 86.6858155,50.7193726 86.7514665,49.8002584 C86.8335303,48.7498422 86.0785436,46.8131372 86.8991813,45.8447847 C87.1125471,45.5821807 87.3751512,45.5493552 87.7362318,45.5493552 C87.78547,44.2363348 89.8042388,44.3348114 90.4771617,44.8764322 Z M80.1699522,31.3030848 C80.2356032,30.8927659 80.0386502,30.5973364 79.9401737,30.5645109 C79.7432206,30.5152726 79.7760461,30.8107022 79.8745226,30.7778767 C79.9401737,30.7778767 80.0222374,30.8763532 79.9894119,31.024068 C79.9565864,31.221021 79.9729992,31.352323 80.120714,31.352323 C80.1371267,31.352323 80.1699522,31.352323 80.1699522,31.3030848 Z M87.0468961,34.5363973 C86.9812451,34.224555 86.7514665,34.3394442 86.4888625,34.1753167 C86.1770201,33.9783637 86.1113691,33.6501086 85.9964798,33.7649979 C85.651812,34.1424912 86.4232114,34.9303034 86.7514665,34.9959544 C86.9484196,35.0287799 87.0961344,34.7661758 87.0468961,34.5363973 Z M84.1254259,31.0404807 C84.1418387,30.6465746 83.7971708,30.4496216 83.7151071,30.4660343 C83.5017413,30.4824471 83.5673923,30.5809236 83.6658688,30.6137491 C83.7971708,30.6465746 83.9284729,30.8763532 83.9612984,31.1225445 C83.9612984,31.15537 84.1254259,31.089719 84.1254259,31.0404807 Z M85.0117146,27.2163091 C85.0281274,27.1342453 84.8147616,27.0357688 84.6670468,26.9208795 C84.5357448,26.7895775 84.4044427,26.6746882 84.2731407,26.6746882 C83.9448856,26.7075137 84.1090131,27.0521815 84.0597749,27.2163091 C83.9941239,27.3968494 83.7479326,27.5445641 83.9120601,27.6758662 C84.0597749,27.7907554 84.1582514,27.4953259 84.4700937,27.3804366 C84.5521575,27.3476111 84.9296508,27.3968494 85.0117146,27.2163091 Z M94.2849206,49.225812 C96.3036893,50.4731813 93.5299339,51.5071848 92.3318029,52.1144567 C91.3962759,52.5904266 90.1489066,53.6408428 89.6893495,54.0839872 C89.3446816,54.4122423 87.9167721,54.5763698 87.1125471,54.166051 C86.1770201,53.6900811 86.6694028,52.9350944 85.2250804,52.8858561 C84.5029192,52.8694434 83.7971708,52.8694434 83.0914224,52.8694434 C82.4677378,52.8858561 81.8440531,52.9186817 81.2039557,52.9350944 C79.0374722,52.9843327 78.8241064,54.3794168 77.4290223,54.3301785 C76.4770826,54.297353 75.2789516,53.5423663 73.2109446,53.1156347 C71.7666222,52.8202051 70.3715381,52.7381414 70.0761086,52.098044 C69.780679,51.4579466 70.4371892,50.7357854 70.4864274,50.1121007 C70.5356657,49.2750503 69.8627428,48.1425703 70.3551254,47.7158387 C70.781857,47.3383453 71.6845585,47.6173621 72.2754176,47.2891071 C72.8991022,46.9280265 73.1617063,46.6490097 73.1617063,45.8776102 C73.3914849,46.6654224 73.1452935,47.3055198 72.6364982,47.6173621 C72.3246559,47.8143152 71.7502095,47.9127917 71.2742396,47.8635535 C70.8967463,47.8307279 70.6669677,47.8799662 70.5684912,48.027681 C70.4207764,48.2082213 70.4700147,48.5364764 70.650555,48.963208 C70.8310952,49.3899396 71.044461,49.6689564 71.0116355,50.1941645 C70.9952228,50.7193726 70.4043636,51.3430573 70.5028402,51.7862016 C70.5356657,51.9503292 70.6997932,52.098044 71.1101121,52.2129332 C71.7666222,52.3934735 72.9647533,52.5740138 74.1300588,52.8530306 C75.4266663,53.1812857 76.7725122,53.7721449 77.6095626,53.6572556 C80.1043012,53.3125877 78.6763916,50.6373089 78.2824855,49.9972115 C76.1652403,46.6818352 74.7701562,44.5153517 73.6540889,45.3688149 C73.3750721,45.5985934 73.3586593,44.8107812 73.3750721,44.4989389 C73.4243104,43.4156972 73.9659312,43.0217911 74.2941863,42.1847406 C74.917871,40.5927035 75.3938408,38.7708878 76.3457806,37.8353608 C77.051529,36.9162466 78.1675962,35.422686 78.380962,34.6348738 C78.2004217,32.9279474 78.1511835,31.1225445 78.118358,29.5469201 C78.0855325,27.8564065 78.3481365,26.3792586 80.252016,25.3452551 C80.7115731,25.0990638 81.318845,25.0005873 81.9589424,25.0005873 C83.0914224,24.9841745 84.3552045,25.3124296 85.1594294,25.9032887 C86.4396242,26.8552285 87.2438491,28.8739972 87.1453726,30.3183195 C87.0797216,31.4507996 87.2766747,32.6161051 87.6377552,33.8306489 C88.0644868,35.2585585 88.7374097,36.2597365 89.8206515,37.4086292 C91.1172591,38.7873006 92.1348498,41.4954049 92.4302794,43.2187441 C92.6928834,44.827194 92.3318029,45.828372 91.987135,45.8776102 C91.4619269,45.959674 91.1336718,47.6173621 89.4923964,47.5517111 C88.4419802,47.5024729 88.3435037,46.8787882 88.0480741,46.3371673 C87.5721042,45.5001169 87.0961344,45.762721 86.9155941,46.6490097 C86.8171175,47.092154 86.8827686,47.7486642 87.0304833,48.2410468 C87.3259129,49.2750503 87.2274364,50.2434028 87.0468961,51.4415338 C86.7022283,53.7064938 88.6389332,54.1332254 89.9355408,53.0499837 C91.2157356,51.9831547 91.4947524,51.8190271 93.1032023,51.2609935 C95.5487026,50.4239431 94.7280649,49.6853691 93.4150446,49.2422248 C92.2333263,48.8483187 92.1840881,46.8623755 92.6108197,46.4848821 C92.7092962,48.6185401 93.8253635,48.9303825 94.2849206,49.225812 Z" id="linux---FontAwesome"></path>
                    </g>
                </g>
            </g>
        </g>
    </g>
</svg>