<?xml version="1.0" encoding="UTF-8"?>
<svg width="60px" height="60px" viewBox="0 0 60 60" version="1.1" xmlns="http://www.w3.org/2000/svg" xmlns:xlink="http://www.w3.org/1999/xlink">
    <!-- Generator: Sketch 50.2 (55047) - http://www.bohemiancoding.com/sketch -->
    <title>Group</title>
    <desc>Created with Sketch.</desc>
    <defs></defs>
    <g id="design" stroke="none" stroke-width="1" fill="none" fill-rule="evenodd">
        <g id="Goldcoin-Downloads-web" transform="translate(-215.000000, -495.000000)" fill="#F7BF00">
            <g id="wallets" transform="translate(215.000000, 494.000000)">
                <g id="Group-2">
                    <g id="Group" transform="translate(0.000000, 1.000000)">
                        <g id="Group-21" opacity="0.100000001">
                            <rect id="Rectangle" x="0" y="0" width="60" height="60" rx="3"></rect>
                        </g>
                        <g id="round-arrow" transform="translate(30.000000, 30.500000) rotate(-360.000000) translate(-30.000000, -30.500000) translate(18.000000, 18.000000)" fill-rule="nonzero">
                            <g id="update-arrows">
                                <path d="M23.5312619,8.95314343 C22.9646849,6.91463532 21.9554389,5.14521561 20.4712905,3.61925107 C19.3284389,2.44444164 18.012917,1.54534084 16.544159,0.932000142 C15.070886,0.316600707 13.5628669,0 12,0 L12,1.5124415 C14.744744,1.5124415 17.4544671,2.60227777 19.4598066,4.6724742 C20.7509474,6.00516013 21.6340867,7.56398365 22.1261069,9.331385 C22.6189516,11.1022579 22.6906816,12.8828997 22.3099274,14.6788408 C21.9291339,16.4747414 21.1541589,18.0681597 19.972007,19.4590553 L17.9232054,17.3931781 L17.9232054,22.5380708 L23.0322533,22.6190476 L20.9834516,20.512561 C22.3493848,18.9189005 23.2555312,17.0958326 23.7021655,15.0567998 C24.148525,13.0177265 24.0944625,10.9792184 23.5312619,8.95314343 Z" id="Shape"></path>
                                <path d="M1.85777806,15.6712898 C1.36689144,13.9020524 1.30735205,12.115517 1.68726821,10.3174227 C2.06745856,8.51904558 2.85353521,6.91017761 4.03292437,5.51765485 L6.07696651,7.61337028 L6.07696651,2.43519024 L0.979728717,2.38095238 L3.01092289,4.46312855 C1.64813673,6.05845726 0.743803879,7.88363003 0.298472735,9.92514801 C-0.147132604,11.966666 -0.0965241218,14.0087498 0.468708389,16.0497019 C1.03057222,18.078489 2.04113588,19.8488985 3.52190404,21.376733 C4.66188753,22.5529914 5.97433941,23.4531701 7.43975267,24.0672058 C8.90990559,24.6833026 10.4275333,25 12,25 L12,23.5128237 C9.22186067,23.5128237 6.55806046,22.4084648 4.5439447,20.3222471 C3.25577863,18.9876804 2.34952642,17.4442455 1.85777806,15.6712898 Z" id="Shape"></path>
                            </g>
                        </g>
                    </g>
                </g>
            </g>
        </g>
    </g>
</svg>