<?xml version="1.0" encoding="UTF-8"?>
<svg width="117px" height="100px" viewBox="0 0 117 100" version="1.1" xmlns="http://www.w3.org/2000/svg" xmlns:xlink="http://www.w3.org/1999/xlink">
    <!-- Generator: Sketch 50.2 (55047) - http://www.bohemiancoding.com/sketch -->
    <title>now compatible illustration</title>
    <desc>Created with Sketch.</desc>
    <defs></defs>
    <g id="design" stroke="none" stroke-width="1" fill="none" fill-rule="evenodd">
        <g id="Goldcoin-Web" transform="translate(-239.000000, -731.000000)" fill-rule="nonzero">
            <g id="//BODY" transform="translate(114.000000, 731.000000)">
                <g id="SECTION1">
                    <g id="BOX1">
                        <g id="now-compatible-illustration" transform="translate(125.000000, 0.000000)">
                            <g id="now-compatible-with-android">
                                <g id="Group-28">
                                    <g transform="translate(56.907821, 40.429785) rotate(-270.000000) translate(-56.907821, -40.429785) translate(16.677936, -16.466767)" id="ipad">
                                        <g>
                                            <path d="M5.5011994,0 L74.5866567,0 C77.5095202,0 79.9009745,2.39666441 79.9009745,5.32589588 L79.9009745,108.292315 C79.9009745,111.221546 77.5095202,113.618211 74.5866567,113.618211 L5.5011994,113.618211 C2.57833583,113.618211 0.186881559,111.221546 0.186881559,108.292315 L0.186881559,5.32589588 C0.186881559,2.39666441 2.57833583,0 5.5011994,0 Z M7.27241379,15.9774622 C6.2982009,15.9774622 5.5011994,16.7764255 5.50097451,17.7527609 L5.50097451,95.8652243 C5.50097451,96.8415596 6.2982009,97.6405229 7.27241379,97.6405229 L72.8149925,97.6405229 C73.7892054,97.6405229 74.5864318,96.8415596 74.5864318,95.8652243 L74.5864318,17.7527609 C74.5864318,16.7764255 73.7892054,15.9774622 72.8149925,15.9774622 L7.27241379,15.9774622 Z" id="Combined-Shape" fill="#CAE2FE"></path>
                                            <path d="M7.27241379,15.9774622 L72.8149925,15.9774622 C73.7892054,15.9774622 74.5864318,16.7764255 74.5864318,17.7527609 L74.5864318,95.8652243 C74.5864318,96.8415596 73.7892054,97.6405229 72.8149925,97.6405229 L7.27241379,97.6405229 C6.2982009,97.6405229 5.50097451,96.8415596 5.50097451,95.8652243 L5.50097451,17.7527609 C5.5011994,16.7764255 6.2982009,15.9774622 7.27241379,15.9774622 Z" id="Shape" fill="#CAE2FE" opacity="0.300000012"></path>
                                            <path d="M40.043928,101.19112 C42.523988,101.19112 44.4724138,103.144016 44.4724138,105.629254 C44.4724138,108.114717 42.5237631,110.067388 40.043928,110.067388 C37.5638681,110.067388 35.6154423,108.114492 35.6154423,105.629254 C35.6152174,103.143791 37.5638681,101.19112 40.043928,101.19112 Z M40.043928,6.2134325 C41.0181409,6.2134325 41.8153673,7.01239576 41.8153673,7.98873112 C41.8153673,8.96506649 41.0181409,9.76402975 40.043928,9.76402975 C39.0697151,9.76402975 38.2724888,8.96506649 38.2724888,7.98873112 C38.2724888,7.01239576 39.0694903,6.2134325 40.043928,6.2134325 Z" id="Shape" fill="#FFFFFF"></path>
                                        </g>
                                    </g>
                                </g>
                                <g id="tactile-instruction" transform="translate(68.965517, 25.287356)" fill="#0E3A64">
                                    <path d="M46.8341191,62.5410498 C44.5515313,58.1969163 45.0370294,59.3562564 44.6254764,57.2101957 C44.2512694,55.2736905 44.4394933,53.0341589 44.3356714,50.7162324 C44.180312,47.211829 43.8554018,43.5287757 43.8554018,40.4404684 C43.8554018,37.7267983 42.7327808,36.8637004 42.1262817,35.1096143 C41.2441691,32.5557492 40.5368357,30.2204853 39.3410167,29.002349 C37.8912447,27.5241526 36.3017988,28.4626302 36.3017988,28.4626302 C35.2546168,25.7271 34.9797502,25.0305913 33.8772961,23.6797866 C32.8181634,22.3794864 31.2190075,22.5551211 31.2190075,22.5551211 C31.2190075,22.5551211 30.4354883,18.6285913 28.6458677,16.6468583 C27.6913038,15.5892808 25.7231693,15.6013416 24.9822246,15.9631642 C24.4466829,16.2262395 23.7288927,17.0689848 22.977491,17.6230258 C21.5329476,18.6881413 19.790383,20.6811812 19.7873953,20.6849502 C19.7873953,20.6849502 19.4916149,19.7751169 18.6677621,18.1499301 C18.443686,17.7082049 18.1516403,17.2189905 17.8319585,16.7049007 C19.5035657,14.930462 20.5358092,12.5371558 20.5358092,9.89585023 C20.5358092,4.43006641 16.1454129,0 10.731736,0 C5.3158183,0 0.9276627,4.43006641 0.9276627,9.89585023 C0.9276627,15.2319809 5.11564371,19.5700841 10.3552882,19.7713479 C10.8198725,21.1621038 11.3845441,22.6794977 11.8782583,23.9594454 C12.7984639,26.3452137 13.57302,28.292272 14.0137029,30.7994016 C14.3363724,32.6379131 14.1459078,34.7402536 14.0674811,36.4966012 C14.0010053,37.9876121 13.8919549,39.4243497 13.7209102,40.6047962 C13.4871242,42.2164147 12.9807124,43.3486181 12.7103273,44.0722635 C12.507912,44.6127361 12.5422703,45.0680297 12.5422703,45.0680297 C12.5422703,45.0680297 12.1703041,45.0619993 11.7281274,45.2082359 C11.2866976,45.3552264 11.0073495,45.7298636 11.0073495,45.7298636 L10.273127,45.2316037 C10.273127,45.2316037 10.4113072,44.962498 10.273127,44.4808216 C10.1229961,43.9554249 9.86082713,43.2174574 9.49035476,42.2292292 C9.33947689,41.8259477 9.19532131,41.0231536 9.07730794,40.6432398 C8.76584226,39.6384281 8.3550362,39.2660523 8.3550362,39.2660523 C8.3550362,39.2660523 8.78078066,37.8866033 8.2101337,36.3925772 C7.6118507,34.8276941 6.29727132,32.7230922 4.83554868,31.3270597 C3.63151347,30.1767651 2.65006046,29.876 1.60885383,30.0350512 C0.312947455,30.2332999 -0.182260573,31.7484323 0.0589946205,33.3442211 C0.204644041,34.3090816 0.630388499,35.6063666 0.731222713,36.2734772 C0.970984066,37.865497 0.100822146,39.7484825 0.132939711,40.8460113 C0.174767236,42.2684267 0.908989697,43.0568986 1.58196471,46.0615344 C1.82172606,47.1349417 2.51636176,48.3093578 2.83454972,49.5388011 C3.30585631,51.3554525 3.59491439,53.0884323 3.80405201,53.5263885 C4.91397529,55.8450689 9.31856313,58.7569876 13.4094445,62.5410498 C15.713693,64.6727884 18.4406983,64.6833415 20.3244308,66.6123087 C21.4784224,67.7927552 22.1125576,69.767704 23.3016544,71.555711 C28.231327,78.9655379 42.675268,71.7260692 46.471116,66.2331487 C47.3733954,64.9298332 47.1889062,63.2172059 46.8341191,62.5410498 Z M2.15784011,9.89585023 C2.15784011,5.1167757 5.99476868,1.24225786 10.730989,1.24225786 C15.4672094,1.24225786 19.304138,5.1167757 19.304138,9.89585023 C19.304138,12.0931692 18.4862605,14.0929933 17.1485266,15.6194327 C16.7668504,15.0163949 16.3784519,14.3945122 16.0259057,13.7718757 C16.8109187,12.6826386 17.2784907,11.3461561 17.2784907,9.89585023 C17.2784907,6.24521017 14.3468293,3.28730978 10.7302421,3.28655599 C7.11365499,3.28655599 4.18274051,6.24521017 4.18274051,9.89585023 C4.18274051,13.0602911 6.38839557,15.7023504 9.33275461,16.3483546 C9.50230548,16.9551614 9.67857862,17.5717676 9.86157405,18.2049573 C9.88995701,18.3029509 9.92282149,18.4077287 9.95344522,18.5087375 C5.58246878,18.1122402 2.15784011,14.4088343 2.15784011,9.89585023 Z M15.3066216,12.3924267 C13.8329482,9.37346873 12.7633586,6.33566584 9.99153814,7.16936559 C9.16320375,7.41887248 8.32291864,8.25784881 8.19071378,9.63654397 C8.06074968,10.9775493 8.39761065,12.7753557 8.9197078,14.8106083 C6.94111645,14.0673642 5.52943745,12.1504578 5.52943745,9.89585023 C5.52943745,6.99599223 7.85833433,4.64565242 10.730989,4.64565242 C13.6036438,4.64565242 15.9325406,6.99599223 15.9317937,9.89585023 C15.9317937,10.7996531 15.7054769,11.6499364 15.3066216,12.3924267 Z" id="Shape"></path>
                                </g>
                            </g>
                            <g id="Group-11" transform="translate(24.137931, 29.885057)">
                                <path d="M4.94752624,0 L29.5505997,0 C32.2569965,0 34.4712644,2.21865255 34.4712644,4.93040856 L34.4712644,58.1783202 C34.4712644,60.8900762 32.2569965,63.1087288 29.5505997,63.1087288 L4.94752624,63.1087288 C2.24112944,63.1087288 0.0268615692,60.8900762 0.0268615692,58.1783202 L0.0268615692,4.93040856 C0.0268615692,2.21865255 2.24125437,0 4.94752624,0 Z" id="Shape" fill="#B8D1EE"></path>
                                <path d="M3.96351824,8.87461022 L30.5347326,8.87461022 C31.075962,8.87461022 31.5188656,9.3183908 31.5188656,9.86069193 L31.5188656,53.2479117 C31.5188656,53.7902128 31.075962,54.2339934 30.5347326,54.2339934 L3.96351824,54.2339934 C3.42228886,54.2339934 2.97938531,53.7902128 2.97938531,53.2479117 L2.97938531,9.86069193 C2.97926037,9.3183908 3.42228886,8.87461022 3.96351824,8.87461022 Z" id="Shape" fill="#F8FBFF"></path>
                                <path d="M17.2492504,56.2061568 C18.6270615,56.2061568 19.7095202,57.2908843 19.7095202,58.6712985 C19.7095202,60.0518379 18.6269365,61.1364402 17.2492504,61.1364402 C15.8714393,61.1364402 14.7889805,60.0517128 14.7889805,58.6712985 C14.7888556,57.2907591 15.8713143,56.2061568 17.2492504,56.2061568 Z M14.2967266,3.4512234 L20.2015242,3.4512234 C20.7427536,3.4512234 21.1856572,3.89500398 21.1856572,4.43730511 C21.1856572,4.97960624 20.7427536,5.42338682 20.2015242,5.42338682 L14.2967266,5.42338682 C13.7554973,5.42338682 13.3125937,4.97960624 13.3125937,4.43730511 C13.3125937,3.89500398 13.7554973,3.4512234 14.2967266,3.4512234 Z" id="Shape" fill="#FFFFFF"></path>
                            </g>
                        </g>
                    </g>
                </g>
            </g>
        </g>
    </g>
</svg>