<?xml version="1.0" encoding="UTF-8"?>
<svg width="106px" height="100px" viewBox="0 0 106 100" version="1.1" xmlns="http://www.w3.org/2000/svg" xmlns:xlink="http://www.w3.org/1999/xlink">
    <!-- Generator: Sketch 50.2 (55047) - http://www.bohemiancoding.com/sketch -->
    <title>designed for safety</title>
    <desc>Created with Sketch.</desc>
    <defs></defs>
    <g id="design" stroke="none" stroke-width="1" fill="none" fill-rule="evenodd">
        <g id="Goldcoin-Web" transform="translate(-1044.000000, -731.000000)">
            <g id="//BODY" transform="translate(114.000000, 731.000000)">
                <g id="SECTION1">
                    <g id="BOX3" transform="translate(801.000000, 0.000000)">
                        <g id="designed-for-safety" transform="translate(129.000000, 0.000000)">
                            <g id="Group-10" fill-rule="nonzero">
                                <g id="worldwide" transform="translate(31.607687, 0.000000)">
                                    <g id="Group" transform="translate(2.379396, 2.269176)" fill="#CAE2FE">
                                        <path d="M52.8944653,7.75541371 L49.577713,9.98122337 L44.0498761,8.86831854 L40.7331239,7.75541371 L36.3108293,8.86831854 L32.994077,7.75541371 L35.2051617,3.30366832 L39.6274563,3.30366832 L43.9613376,1.12235973 C47.303637,2.7861701 50.3273479,5.03202415 52.8944653,7.75541371 Z" id="Shape"></path>
                                        <path d="M27.4663654,3.30366832 L26.360823,6.64250888 L23.0440708,7.75541371 L19.7273185,13.3200639 L14.1994816,16.6589045 L6.46056,17.7718093 L6.46056,21.1106499 L8.67164468,23.3364595 L8.67164468,27.7882049 L5.35514289,25.5622692 L2.03839065,23.3364595 L0.114711915,17.5158967 C3.42582875,9.57277166 9.75527153,3.2935831 17.6931857,0.0761434659 L20.8329861,2.19076349 L27.4663654,3.30366832 Z" id="Shape"></path>
                                        <polygon id="Shape" points="29.6775753 34.4656339 28.5720329 40.0302841 24.1497383 44.4820295 24.1497383 47.82087 19.7274438 51.1595845 19.7274438 56.7242347 16.4108167 55.6113299 14.1996068 50.0466797 14.1996068 38.9173793 8.67176991 37.8044744 6.46068523 33.352729 6.46068523 30.0138885 8.67176991 27.7880788 11.9885222 24.4492383 14.1996068 28.9009837 21.9385284 28.9009837 25.2552807 34.4656339"></polygon>
                                        <path d="M57.6483725,14.2437447 C63.6836468,25.0825906 62.9960015,38.4477859 55.8794797,48.5998278 L52.8944653,45.5949343 L52.8944653,41.1431889 L50.6833806,36.6914435 L48.4722959,32.2396982 L48.4722959,27.7879528 L45.1555437,25.5621431 L40.7332491,26.6750479 L32.9943275,23.3362074 L31.8887852,15.5457475 L35.2055374,12.206907 L41.8389167,12.206907 L44.0500014,15.5457475 L50.6833806,16.6586523 L57.3167599,14.4328427 L57.6483725,14.2437447 Z" id="Shape"></path>
                                    </g>
                                    <path d="M38.6903501,11.1374947 L43.1126447,10.0245898 L46.429397,11.1374947 L51.9572339,12.2503995 L55.2739861,10.0245898 C57.1257821,11.9755771 58.7233584,14.1557511 60.0278933,16.5129208 L59.6962807,16.7021449 L53.0629015,18.9279545 L46.4295222,17.8150497 L44.2184375,14.4762092 L37.5850583,14.4762092 L34.268306,17.8150497 L35.3738483,25.6055096 L43.1127699,28.9443501 L47.5350645,27.8314453 L50.8518168,30.057255 L50.8518168,34.5090004 L53.0629015,38.9607457 L55.2739861,43.4124911 L55.2739861,47.8642365 L58.2590005,50.86913 C48.0491392,65.4329545 28.0438071,68.9064329 13.5774575,58.6284517 C1.29126043,49.8985529 -3.31787933,33.7465572 2.49410752,19.7849467 L4.41778626,25.6055096 L7.7345385,27.8313192 L11.0512907,30.0571289 L8.84008084,32.2830646 L8.84008084,35.6219052 L11.0511655,40.0736506 L16.5790024,41.1865554 L16.5790024,52.3158558 L18.7900871,57.880506 L22.1068394,58.9934109 L22.1068394,53.4287607 L26.5291339,50.0899201 L26.5291339,46.7510795 L30.9514285,42.2993342 L32.0569709,36.7346839 L27.6346763,36.7346839 L24.317924,31.1700337 L16.5790024,31.1700337 L14.3679178,26.7182884 L11.0511655,30.0571289 L11.0511655,25.6053835 L8.84008084,23.3796999 L8.84008084,20.0408594 L16.5790024,18.9279545 L22.1068394,15.589114 L25.4235916,10.0244638 L28.7403439,8.91155895 L29.8458862,5.57271839 L23.2125069,4.45981357 L20.0727066,2.34519354 C28.5745376,-1.10155895 38.13545,-0.720967685 46.3409836,3.3914098 L42.0071024,5.57271839 L37.5848078,5.57271839 L35.3737231,10.0244638 L38.6903501,11.1374947 Z" id="Shape" fill="#EFF6FE"></path>
                                </g>
                                <g id="startup-2" transform="translate(0.000000, 27.272727)">
                                    <path d="M49.3829746,44.5868214 L44.1504195,44.4444444 L44.2918545,49.7118464 C44.4332895,58.2536457 51.5043649,65.2294348 59.9896554,65.5141887 L65.2222106,65.6565657 L65.0807755,60.3891637 C64.7977701,51.8473644 57.8681297,44.7291983 49.3829746,44.5868214 Z" id="Shape" fill="#FEB917"></path>
                                    <path d="M72.2246289,43.9662873 C71.4713509,42.5977581 70.4165598,41.3813039 69.361913,40.3167791 C66.6498815,37.5797207 63.3351123,35.7549666 59.7189742,34.8426624 C52.9388955,33.1699832 45.4053946,34.9947373 40.1318719,40.3167791 C34.8583492,45.6388209 33.0504244,53.2418417 34.707809,60.0846331 C35.6117714,63.5820663 37.4198405,67.079354 40.1318719,69.8164124 C41.1865188,70.8807917 42.5425345,71.9453164 43.74801,72.7055458 C35.9131403,73.0096957 27.7770459,70.1205623 21.7502452,64.0381457 C16.9287758,59.1721833 14.2167443,53.2418417 13.3127819,47.0073501 C12.1074506,38.0358001 14.9701665,28.7601002 21.7502452,21.9174543 C28.5303239,15.0748083 37.8718938,12.185675 46.6107259,13.4021292 C52.7882111,14.3144335 58.8150117,17.0516374 63.4857967,21.9174543 C69.6632818,27.8479414 72.5259977,36.0592621 72.2246289,43.9662873 Z" id="Shape" fill="#0E3A64"></path>
                                    <path d="M59.2016988,44.1731378 C54.9960281,18.3174095 32.9161489,-0.734217917 5.57907357,0.0217289869 L0.171803165,0.172947309 L0.0215852374,5.61622807 C-0.729360652,33.135358 18.1962295,55.3622807 43.8809077,59.5959596 L59.2016988,44.1731378 Z" id="Shape" fill="#EFF6FE"></path>
                                    <g id="Group" fill="#B8D1EE">
                                        <path d="M32.2307876,56.2475924 C35.9934805,57.7590443 39.9068425,58.8170173 43.9705854,59.5728155 L59.17217,44.3071369 C58.57007,40.2262602 57.366014,36.2963985 55.8609081,32.517841 L32.2307876,56.2475924 Z" id="Shape"></path>
                                        <path d="M23.5012019,2.44010738 C17.932353,0.777495832 11.9119292,-0.129462097 5.59045531,0.0216975581 L0.17213146,0.172857213 L0.0216064594,5.61402618 C-0.128918541,11.9621531 0.774087419,18.0079607 2.42971838,23.6002893 L23.5012019,2.44010738 Z" id="Shape"></path>
                                    </g>
                                    <path d="M44,59.5458738 C45.5290258,59.853745 47.2109689,60.0076806 48.7399947,60.1616162 L60.054698,48.7715612 C59.9017808,47.0784171 59.7488636,45.5392086 59.4430291,44 L44,59.5458738 Z" id="Shape" fill="#F2F2F2"></path>
                                    <ellipse id="Oval" fill="#CAE2FE" cx="26.5905935" cy="26.7676768" rx="11.5393142" ry="11.6161616"></ellipse>
                                    <ellipse id="Oval" fill="#FFFFFF" cx="26.0888842" cy="26.2626263" rx="8.02734899" ry="8.08080808"></ellipse>
                                </g>
                            </g>
                            <path d="M77,75 C90.5429655,74.8865361 98.8762988,68.2198694 102,55" id="Path-35" stroke="#0E3A64" stroke-linecap="round" stroke-linejoin="round" transform="translate(89.500000, 65.000000) rotate(-14.000000) translate(-89.500000, -65.000000) "></path>
                            <path d="M84,76 C97.5429655,75.8865361 105.876299,69.2198694 109,56" id="Path-35-Copy" stroke="#0E3A64" stroke-linecap="round" stroke-linejoin="round" transform="translate(96.500000, 66.000000) rotate(-22.000000) translate(-96.500000, -66.000000) "></path>
                        </g>
                    </g>
                </g>
            </g>
        </g>
    </g>
</svg>