<?xml version="1.0" encoding="UTF-8"?>
<svg width="366px" height="360px" viewBox="0 0 366 360" version="1.1" xmlns="http://www.w3.org/2000/svg" xmlns:xlink="http://www.w3.org/1999/xlink">
    <!-- Generator: Sketch 50.2 (55047) - http://www.bohemiancoding.com/sketch -->
    <title>world</title>
    <desc>Created with Sketch.</desc>
    <defs>
        <polygon id="path-1" points="359.121509 155.362301 361.717568 155.362301 361.717568 163.99354 359.121509 163.99354"></polygon>
    </defs>
    <g id="design" stroke="none" stroke-width="1" fill="none" fill-rule="evenodd" opacity="0.600000024">
        <g id="Goldcoin-Downloads-web" transform="translate(-515.000000, -162.000000)">
            <g id="//header" transform="translate(0.000000, -1.000000)">
                <g id="world" transform="translate(698.769131, 342.901866) rotate(-5.000000) translate(-698.769131, -342.901866) translate(517.769131, 162.901866)">
                    <path d="M91.6226569,21.5803521 C91.5681894,21.57059 91.49254,21.5933682 91.3715009,21.6324166 C90.9872019,21.7886101 90.4152923,22.100997 90.321487,22.1693316 C90.2337337,22.2344122 89.2291095,23.1357787 89.2260835,23.1422868 C89.16859,23.1976053 89.1110964,23.2594319 89.1383302,23.2822101 C89.1443822,23.2887181 89.6224865,23.5067382 91.0689032,22.423146 C91.867761,21.8276584 91.7800077,21.6096384 91.6226569,21.5803521" id="Fill-1" fill="#EBF4FD"></path>
                    <path d="M89.1313624,19.8612242 C89.1002306,19.8366137 89.0779936,19.8666932 89.0490856,19.8803657 C88.8667424,19.9651352 88.4664768,20.1975676 88.3997659,20.249523 C88.3197128,20.3069475 88.2463308,20.413593 88.2707915,20.435469 C88.3085943,20.4628139 88.4820427,20.3889825 88.6421489,20.2850715 C88.7177547,20.2358505 89.1113491,19.9268522 89.1313624,19.8612242" id="Fill-3" fill="#EBF4FD"></path>
                    <path d="M94.1954515,17.8397117 C94.6242717,17.7262289 94.6242717,17.7262289 95.0500069,17.5205412 C95.0901124,17.5028095 95.4757421,17.3183999 96.0958347,16.9460342 C96.1020047,16.9389415 96.8084783,16.5098345 96.9195397,16.410537 C96.8701791,16.3928053 96.8701791,16.3928053 96.7591177,16.4353614 C96.7313524,16.442454 94.1244957,17.5205412 91.7274215,18.9887257 L93.0601577,18.3893943 C93.4396173,18.2120774 93.7851415,17.9461019 94.1954515,17.8397117" id="Fill-5" fill="#EBF4FD"></path>
                    <path d="M90.5882047,19.1063131 C90.574088,19.1034372 90.557148,19.0948092 90.5430313,19.0948092 C90.5966747,19.0459174 90.6249081,19.0229095 91.5142595,18.6375274 C91.8220033,18.508108 92.2398573,18.3269208 92.4657243,18.2090054 C92.505251,18.1859975 92.5588945,18.1543617 92.5927745,18.1256018 C92.5334844,18.1342298 92.454431,18.1457337 92.4036109,18.1629896 C89.7863768,19.0257855 87.7479269,20.403383 87.4006563,20.7139895 C87.6095833,20.7571293 90.4046877,19.3680279 90.5599713,19.2472365 C90.5515013,19.1983447 90.574088,19.1523289 90.5882047,19.1063131" id="Fill-7" fill="#EBF4FD"></path>
                    <path d="M94.2126817,19.3048832 C94.2687824,19.2608323 94.3248831,19.2131104 94.3697637,19.1543757 C94.4567197,19.055261 94.5296506,18.9341208 94.6166067,18.8313352 C94.7680785,18.6441185 94.9363805,18.4752565 95.0906574,18.2880398 C95.1860286,18.1779123 95.1860286,18.1522159 95.1888336,18.1375323 C95.1748084,18.1228486 95.1663933,18.1191777 95.0990725,18.1412032 C94.5745311,18.3687999 93.66009,19.2498195 93.6011843,19.3526051 C93.6011843,19.359947 93.6067944,19.3636179 93.6067944,19.3672888 C93.6909454,19.4260234 93.6909454,19.4260234 93.4581276,19.8518496 C93.5338635,19.8408368 94.2098767,19.3085542 94.2126817,19.3048832" id="Fill-9" fill="#EBF4FD"></path>
                    <path d="M87.3426132,25.0321447 C87.2711198,25.025699 87.2032011,25.0407389 87.1317077,25.0514817 C86.8314354,25.1051957 86.5704844,25.1825438 86.5704844,25.1825438 C85.7804823,25.4188853 84.861792,25.8314086 84.8045972,25.8808255 C84.8045972,25.8829741 84.8117466,25.8872712 84.8153212,25.8937168 C84.9583081,25.8894197 86.445371,25.5349075 87.0673636,25.2663376 C87.2925678,25.1675039 87.5070481,25.045036 87.3426132,25.0321447" id="Fill-11" fill="#EBF4FD"></path>
                    <path d="M89.1313624,27.6904775 C89.0568572,27.6418534 88.9789655,27.586746 88.5624138,27.645095 C88.4946819,27.6548198 88.3998571,27.6710279 88.3321251,27.6839943 C87.6514188,27.8136587 86.9673259,27.943323 86.2866196,28.076229 C85.4467431,28.2545175 82.7340777,29.4895706 82.3649385,29.9855368 C82.3683251,30.0017448 82.3750982,30.0244361 82.3784848,30.0406441 C82.5986138,30.1087179 82.8424489,29.9985032 83.0558046,30.1378924 C83.3876912,30.3583218 83.2860933,30.497711 83.2183613,30.6014425 C83.0964437,30.7862142 81.2947733,32.0666499 80.8104897,32.3130122 C80.6072938,32.4167436 80.5835876,32.413502 80.4684433,32.4070188 C80.3329793,31.9045694 80.9730464,31.7360057 80.9899794,31.3016301 C80.6513196,31.3502542 78.9783399,32.206039 78.7819172,32.6468979 C78.758211,32.6922804 78.7345048,32.7668374 78.7548244,32.8154616 C78.8564223,33.1882466 79.069778,33.5221324 79.1442832,33.9078838 C79.1781492,34.0569979 79.2797472,34.1899038 79.272974,34.3487427 C79.272974,34.6307627 79.086711,34.8868498 79.1307368,35.175353 C79.1408966,35.2207356 79.1612162,35.2855677 79.1950822,35.3212254 C79.7064586,35.8333997 84.2648202,33.2725285 85.5110885,32.0763747 C85.7820164,31.8105627 86.5778671,30.2967313 86.0563309,30.3129393 C85.4806091,30.332389 84.9760059,30.5982009 84.4341502,30.7213821 C85.5043153,30.0341609 86.6997846,29.5641276 87.7665632,28.8736649 C87.776723,28.8671816 89.1212026,27.7747594 89.1313624,27.6904775" id="Fill-13" fill="#EBF4FD"></path>
                    <path d="M75.7517421,28.8893515 C77.5849654,27.9571789 79.1361543,26.4842039 80.9317731,25.4808731 C79.1142183,26.7830684 79.1142183,26.7830684 79.0264743,26.8933636 L85.1810907,22.9120616 C85.3064393,22.8302296 85.4881948,22.7128186 85.6699503,22.4459753 C85.6041422,22.4281857 85.5038634,22.4637648 85.4380553,22.495786 C84.1250287,23.1611153 75.4133008,28.4766338 73.5550078,30.2093363 C74.4825875,30.0741357 75.0623247,29.2202372 75.8457535,28.7861721 C75.8206838,28.8181933 75.7830792,28.8608882 75.7517421,28.8893515" id="Fill-15" fill="#EBF4FD"></path>
                    <path d="M75.5560293,40.5668231 C75.5315605,40.5668231 75.4979159,40.5734785 75.4765057,40.580134 C75.3786303,40.6200668 75.2715792,40.6733106 75.07277,40.8430251 C74.2928262,41.5019169 73.708633,42.3904224 72.8583413,42.9561375 C71.4483252,43.894559 71.0231794,44.1807443 70.9589487,44.4070303 C70.9711831,44.4170135 70.9834175,44.4336522 70.9925933,44.43698 C71.102703,44.4536186 71.203637,44.4303245 71.5462005,44.3537866 C72.0845147,44.2306603 72.151804,44.2339881 72.2527379,44.310526 C72.4393127,44.4502909 72.3964922,44.7797368 72.6442391,44.8729134 C72.7176455,44.902863 73.1091468,44.8596024 73.4945308,44.7797368 C75.9322375,44.2872318 76.9446352,43.1990622 76.9507524,43.189079 C77.2260267,42.8330112 76.5470168,41.4686395 76.5439582,41.4553286 C76.2472737,40.8962689 75.635553,40.5668231 75.5560293,40.5668231" id="Fill-17" fill="#EBF4FD"></path>
                    <path d="M79.5014271,30.2102376 C79.4509416,30.2066928 79.3443612,30.2102376 79.1171766,30.2846792 C77.919549,30.6923354 77.0612959,31.6281723 77.0164199,31.7664209 C77.0220294,31.7735106 77.0276389,31.7841451 77.0360532,31.7876899 C77.1538526,31.7912347 77.2744568,31.7132483 77.3922562,31.7735106 C77.4203037,31.8798557 77.428718,31.8975798 77.3109185,32.2024358 C77.2351903,32.3867673 77.0528817,32.8794996 77.2996995,32.7873338 C77.7035833,32.6349059 78.8956014,31.3126818 79.0302294,31.1602538 C79.5995933,30.5186384 79.7398307,30.2350515 79.5014271,30.2102376" id="Fill-19" fill="#EBF4FD"></path>
                    <path d="M140.061761,5.24200043 C139.136727,6.360804 136.718657,7.00651349 135.417118,7.35174431 C135.358695,7.36772722 128.779597,9.24412064 128.497218,9.62131727 C126.6861,12.0219501 131.246353,12.7955228 131.304776,12.7891297 C142.616152,11.9708048 142.76221,12.0954715 143.557414,12.7731468 C143.615837,12.8242921 148.877169,18.5813356 147.163422,21.710789 C146.475327,22.9830285 146.478573,23.0309772 146.51103,23.2067892 C146.634368,23.8780714 147.455538,23.9260201 147.695722,24.4950116 C148.055999,25.3644818 147.692477,26.3618153 148.182582,27.2089094 C149.675619,26.8636786 150.873294,25.332516 152.648709,26.1156785 C155.683469,27.4454565 154.284558,29.8492859 154.261838,29.8716619 C153.015477,31.32291 150.749956,31.2589784 149.626933,32.8956282 C149.010244,33.7938676 148.406538,36.2680218 148.873923,37.7160733 C149.088141,38.4001417 157.926269,53.1395797 162.165195,54.5492722 C160.035995,23.9004474 158.478044,9.96335151 156.332615,3.34003436 C158.26058,9.1642061 159.821777,20.595182 162.165195,54.5492722 C172.752773,56.5535289 172.979974,56.3009989 173.655086,55.5529988 C174.774864,54.3191183 176.6866,44.7869119 176.702829,44.6910144 C176.978716,43.2877151 176.232198,41.8045012 177.043631,40.445954 C177.472067,39.7395094 177.520753,39.7267231 180.16927,38.9339709 C188.514047,36.4470304 188.514047,36.4470304 188.731511,34.8870985 C188.952221,33.2824145 189.08205,32.3969614 190.581578,31.6425682 C194.22329,29.8269098 198.410284,29.5679867 202.045504,27.7267557 C203.532049,26.9691658 205.154915,26.486482 206.531105,25.5275075 C206.560317,25.5051314 207.245166,25.0160544 206.394784,23.9324133 C205.158161,22.3564985 203.27239,21.4454727 202.074715,19.8248059 C201.315214,18.7891134 201.34118,17.4785149 200.815371,16.3629079 C200.201928,15.0555061 200.474569,14.7006855 201.221088,13.9622751 C202.249985,12.9297793 201.535924,12.5110271 199.416461,11.2835397 C192.490069,7.25265028 192.431646,7.15994941 191.837677,6.25212023 C191.876625,6.1690091 191.922066,6.05712875 191.957769,5.97082104 C192.064878,5.92926548 192.20769,5.87812018 192.314799,5.83656461 C190.292708,3.88664982 186.183612,5.43059875 185.196909,1.72576063 C184.992428,1.62347002 184.713295,1.48601701 184.505568,1.39331614 C184.538026,1.22070073 184.599694,0.987350273 184.651626,0.824324609 C184.742507,0.801948538 184.852862,0.773179303 184.930759,0.753999813 C184.0252,0.632529711 181.402649,0.466307466 181.376683,0.466307466 C179.620742,0.367213435 177.403907,0.741213487 176.978716,0.817931446 C175.462959,1.0864443 174.177649,0.105093741 172.71707,0.0539484348 C170.669013,-0.0163763612 166.157446,-0.0227695244 164.35931,0.0635381798 C161.055155,0.245743333 161.055155,0.245743333 160.672159,0.498273282 C160.672159,0.498273282 160.665667,0.498273282 160.659176,0.501469864 C157.056413,0.696461344 157.056413,0.696461344 155.336175,1.01931609 L155.329684,1.01931609 C155.293981,1.02890583 155.251786,1.0001366 155.229066,1.04169216 C155.235558,1.05447849 155.251786,1.04808532 155.261523,1.05128191 C155.293981,1.05767507 155.336175,1.06087165 155.375124,1.06726481 C157.478358,1.22070073 157.478358,1.22070073 158.111276,1.38052981 C157.932761,1.39651272 157.932761,1.39651272 155.582851,1.36135032 C154.618869,1.348564 154.261838,1.34536742 153.116095,1.45085461 C144.677192,2.37786328 138.614164,5.05979528 138.552495,5.08536793 C138.851103,5.24200043 138.851103,5.24200043 140.061761,5.24200043" id="Fill-21" fill="#EBF4FD"></path>
                    <path d="M108.824548,40.4093514 C109.227901,39.254153 109.04897,38.7320295 108.296853,38.8592971 C108.275624,38.8625603 106.025339,39.505425 105.609855,40.5855681 C105.376334,41.2088531 106.316481,42.8241729 106.689506,43.0754448 C107.608423,43.7052564 108.812417,40.4452474 108.824548,40.4093514" id="Fill-23" fill="#EBF4FD"></path>
                    <path d="M125.778342,7.08222776 C125.245702,7.29875095 124.700148,7.48661665 124.154595,7.68403485 C125.878414,7.28283013 131.443704,5.77672033 132.341123,5.5283555 C128.615865,6.74789049 125.668586,7.71269233 122.527619,8.36863021 C121.794835,8.52147011 121.572094,8.69341499 121.288019,8.90993818 C121.288019,9.12009303 120.991031,10.1740515 120.455162,10.6548603 C118.792677,10.1581307 114.479901,12.6258581 114.312038,12.7659614 C114.692957,12.9315379 115.141667,12.8614863 115.503217,13.0843778 C115.487076,13.1385086 115.461251,13.2149286 115.448339,13.2690593 C116.003576,13.1990077 116.213404,13.1767186 118.053436,12.5016757 C114.880188,14.2052037 114.512182,13.8008148 114.270072,13.533345 C111.86189,13.59066 111.723081,14.4917785 111.661746,14.9248249 C110.293021,15.8132068 108.514323,15.9087317 107.303776,17.0868726 C107.336057,17.1378192 107.384479,17.2046866 107.419989,17.2556333 C107.804136,17.2747383 108.078526,17.2874749 110.58678,16.8034819 C112.436497,16.4404872 114.076385,15.1477164 116.110104,15.5871311 C115.961611,15.9405733 115.961611,15.9405733 115.535498,16.2589898 C116.888083,16.5264596 121.220228,14.4535685 120.826397,13.3996101 C120.681131,13.358216 120.484215,13.3136376 120.335722,13.2786118 C120.658534,12.8328288 123.52511,11.0401442 124.170736,10.8904885 C128.038031,9.97026495 129.393844,8.5405751 129.429353,8.21579032 C129.371247,8.19668533 129.293772,8.17121202 129.229209,8.14892287 C132.815658,7.22551517 134.449089,6.80520545 135.559565,6.07921595 C135.272262,6.0569268 135.272262,6.0569268 134.649233,6.16518839 C134.687971,6.15245174 142.761514,3.67517177 143.177943,3.55417352 C141.086117,3.85030082 140.96022,3.86622164 140.172557,3.92035244 C142.173995,3.39178113 144.23354,3.09565384 146.244663,2.58937168 C144.298102,2.59255585 141.060292,2.98739224 141.040923,2.99376057 C140.96022,3.00331307 133.177208,4.31518883 131.498582,4.95202173 C131.566373,5.04754666 131.701954,5.15580825 131.81171,5.20357072 C131.488898,5.29909566 131.211279,5.3850681 130.394563,5.286359 C129.823185,5.21630738 123.134507,6.81794211 122.446916,7.63627238 C122.789098,7.79866477 122.879485,7.83369058 125.778342,7.08222776" id="Fill-25" fill="#EBF4FD"></path>
                    <path d="M94.4898819,19.9418762 C94.3314045,20.1506988 94.232356,20.3902305 94.0606721,20.5806276 C93.8130511,20.8447267 93.7800349,20.8692941 92.9282185,21.4834781 C93.0140605,21.2869392 93.1263153,21.0289819 93.2121573,20.8355139 C93.2451734,20.7341736 93.3145073,20.642046 93.3145073,20.5284219 C93.2451734,20.4946418 92.5485329,20.565273 91.8320827,21.2531591 C91.9113214,21.2531591 91.9938617,21.2470172 92.0731005,21.2439463 C92.0731005,21.2654428 92.0731005,21.296152 92.0664972,21.3145775 C91.2410937,21.9625416 90.1416563,22.0669529 89.2271092,22.5460164 C89.3690786,22.6166476 89.511048,22.4631016 89.6596206,22.5490873 C89.5407625,22.7701936 89.5407625,22.7701936 89.553969,22.8131865 C89.7124465,22.8592503 89.7124465,22.8592503 92.3570393,22.0515983 C91.5250325,22.4815271 89.3030463,23.6208384 89.1313624,24.1336821 C89.1412672,24.1459658 89.1511721,24.1613204 89.1544737,24.1674622 C89.1676801,24.1705331 92.1523392,23.1417749 92.5287232,22.9483069 C92.7829475,22.8162574 92.7829475,22.8162574 94.4700722,21.449698 C94.4799771,21.4711944 94.5228981,21.5387546 94.463469,21.6892297 C94.4601674,21.7045843 94.446961,21.7199389 94.4370561,21.7322226 C95.2129354,21.0474074 95.2129354,21.0474074 97.2500312,19.4781673 C97.6858443,19.143437 97.7188604,19.1188696 97.7848927,19.0113874 C97.6495265,18.9806782 97.6495265,18.9806782 97.4811442,19.0144584 C97.4613345,19.0175293 94.8332498,19.7422664 94.5625174,19.8865997 C94.5394061,19.9019543 94.50639,19.9203798 94.4898819,19.9418762" id="Fill-27" fill="#EBF4FD"></path>
                    <path d="M123.32465,40.8074862 C124.515171,40.7103423 127.139438,43.9474284 127.168241,43.9818989 C127.792304,44.780986 128.448371,45.6051425 129.037231,45.4985975 C130.682198,45.1914974 133.133647,39.0463609 133.159249,38.9836874 C133.220056,38.7956669 133.277661,38.5324382 133.26166,38.3350167 L121.247639,35.6682594 C121.583673,35.4081644 121.906906,35.1700051 124.790399,33.9134014 C126.057728,33.3650083 126.691392,33.089245 126.649788,32.7664764 C126.550578,31.9235179 122.329349,28.009558 120.281141,27.6836558 C119.372248,27.5426404 118.40895,27.8121364 117.525661,27.3890903 C116.591166,26.9409748 116.709578,25.4556129 115.429448,25.3553353 C114.254928,25.2644588 111.723471,26.1982939 109.876883,26.8783013 C108.001493,27.5677098 107.985491,27.5645761 107.687861,27.5489077 C107.566249,27.2543423 107.431835,26.9472422 107.323024,24.2742175 C106.564547,23.979652 104.189905,24.3744951 103.482634,24.5029758 C99.866266,25.3365333 89.0875707,34.1828975 91.1133765,35.5335114 C93.1199805,36.8809916 100.039084,35.4959073 100.970378,35.0540591 C100.829564,34.486864 100.739955,34.1139566 103.757862,33.7911881 C106.314921,33.5185584 106.69576,32.9106255 106.948586,32.5063814 C107.569449,32.8291499 109.217616,34.2236353 109.227217,34.23617 C110.107307,35.1574704 110.475344,36.404673 111.297828,37.3698449 C112.334733,38.582577 114.722176,38.4509627 114.741378,40.6758719 C114.741378,40.7260107 114.226125,45.7179548 107.121403,47.8049822 C104.989987,48.4285835 102.685753,48.3095039 100.666347,49.359285 C99.7734566,49.8230689 99.747854,51.2958961 100.00068,51.5152533 C100.391119,51.8599575 101.648847,52.0103739 105.386827,50.7725724 C108.238317,49.8262025 108.238317,49.8262025 113.317233,52.0103739 C112.904391,52.43342 112.904391,52.43342 110.856183,53.185502 C111.979497,54.1538076 120.658779,55.9243339 122.431759,54.9622957 C122.361352,54.699067 122.361352,54.699067 121.910106,54.4859771 C121.679683,54.3762985 121.679683,54.3762985 117.820091,50.8540479 C120.831597,51.1736827 121.785294,51.5497237 123.497468,52.6872477 C123.827101,52.9097386 124.067125,53.0695561 124.230342,53.0194173 C125.200041,52.7279855 126.813004,49.1618635 126.035325,48.3690437 C124.348754,46.6549236 121.212435,46.8774145 120.252338,44.2012561 C119.458657,41.9982827 123.283046,40.8074862 123.32465,40.8074862" id="Fill-29" fill="#EBF4FD"></path>
                    <path d="M83.0738912,24.0153148 C83.1806014,24.0836773 83.8875564,23.8074929 84.4544544,23.5149016 C84.567834,23.4574771 84.7679156,23.3535661 84.8045972,23.3125487 C84.8012625,23.3098142 84.7912584,23.3043452 84.7912584,23.3043452 C84.7612462,23.3070797 84.731234,23.3125487 84.7012217,23.3234867 C84.4411156,23.4027871 83.0905646,23.9196074 83.0738912,24.0153148" id="Fill-31" fill="#EBF4FD"></path>
                    <path d="M150.228044,30.1790475 L151.773328,29.8155675 C151.773328,29.8155675 152.177852,29.6051317 152.277635,29.2607822 C152.339662,29.0407811 152.272241,28.8973022 152.20482,28.7761422 C152.069979,28.501938 151.789509,28.4126622 151.625002,28.1735306 C151.519826,28.0204864 151.517129,27.8770074 151.517129,27.7941085 C151.517129,27.7717895 151.509038,27.7367169 151.49016,27.7207748 C151.49016,27.7207748 151.293292,27.5645422 150.745835,27.6410643 C150.055447,27.8164274 148.075974,29.1778832 149.157403,29.9590464 C149.38933,30.1280327 149.799248,30.2747001 150.228044,30.1790475" id="Fill-33" fill="#EBF4FD"></path>
                    <path d="M113.323867,24.0173682 C113.338244,24.012048 113.349746,23.9987475 113.361247,23.9907672 C113.188721,23.7486973 110.891243,23.1182516 109.194733,23.3576614 C107.711005,23.5890908 108.173951,24.5148085 108.52188,24.7808194 C109.651928,25.632054 113.286486,24.035989 113.323867,24.0173682" id="Fill-35" fill="#EBF4FD"></path>
                    <path d="M101.055287,15.4924706 C100.542058,15.6661114 99.691923,15.979785 99.5155988,16.1002133 C99.5974636,16.0918113 99.6761798,16.0694061 99.7485986,16.0470008 C100.548355,15.8173469 101.341814,15.87336 101.341814,15.8761607 C101.266246,16.1310205 100.875814,16.1226185 100.809693,16.380279 C100.913598,16.5007073 102.273813,16.0133929 102.371421,15.9657817 C102.859461,15.7333272 104.443231,14.5094399 104.443231,14.2657827 C104.23542,14.2041682 104.065393,14.3638057 103.867028,14.361005 C104.043353,14.050132 104.484163,14.0697366 104.707717,13.8148768 C104.669933,13.8064748 104.669933,13.8064748 104.566028,13.8344814 C103.14284,14.2461781 101.2568,15.0163589 101.0238,15.1535911 C101.341814,15.2348101 101.622043,15.0303621 101.930611,15.0527674 C101.974692,15.1591924 101.807813,15.2404115 101.055287,15.4924706" id="Fill-37" fill="#EBF4FD"></path>
                    <path d="M94.6208081,23.4150379 C94.2739826,23.6547293 94.1519514,23.735664 94.6914578,24.059403 C95.1538917,24.3364488 96.313188,24.084306 97.3087056,23.2625071 C97.8803254,22.7862372 99.0492558,21.625135 98.5129608,21.5784419 C98.4455225,21.575329 98.3556048,21.5940063 98.2913779,21.6064578 C97.3632985,21.8554877 94.7781641,23.3123131 94.6208081,23.4150379" id="Fill-39" fill="#EBF4FD"></path>
                    <path d="M109.034482,14.7022403 C109.028195,14.6935001 109.015621,14.678933 109.012478,14.6731062 C108.968469,14.6760196 108.921317,14.6847599 108.886739,14.6935001 C108.849017,14.7051538 108.808152,14.713894 108.773574,14.7255477 C108.044288,14.9265732 107.337007,15.1916937 106.610865,15.3956327 C105.774701,15.6316191 104.910246,15.7889434 104.067796,16.0307567 C103.470536,16.2026481 103.10275,16.322098 102.977011,16.3949334 C103.206484,16.4444614 105.648962,16.0686311 106.962934,15.7277618 C107.616776,15.5558704 107.924836,15.4451607 108.817583,14.8683049 C108.893026,14.8187769 108.968469,14.7663354 109.034482,14.7022403" id="Fill-41" fill="#EBF4FD"></path>
                    <path d="M102.977011,16.3715538 C102.988123,16.3785039 102.993679,16.392404 102.999235,16.399354 C103.238145,16.3646038 105.457782,15.203946 106.093949,14.8286434 C106.377307,14.6618423 106.432867,14.5958169 106.438423,14.4463909 C106.438423,14.2726397 106.230072,14.3525652 106.221738,14.1857641 C106.221738,14.1093136 106.263408,14.025913 106.221738,13.9425125 C106.221738,13.9320874 106.21896,13.9216623 106.207847,13.9112373 C106.207847,13.9112373 106.180067,13.8591119 106.116173,13.8347868 C106.005052,13.7896115 105.955048,13.8104616 105.816147,13.8625869 C105.735584,13.9077623 105.616129,13.9772627 105.477228,14.1023636 C104.991075,14.5297914 104.668825,15.2213211 104.085441,15.4923729 C103.363156,15.8225001 103.11869,15.9371759 102.977011,16.3715538" id="Fill-43" fill="#EBF4FD"></path>
                    <path d="M110.018327,12.4272698 C111.596953,11.3104385 111.60535,11.282617 111.630541,11.2229997 C111.571763,11.2110762 111.515783,11.2468466 111.4682,11.2627446 C111.451406,11.2706936 109.87278,11.990076 109.410948,12.3040606 C108.884739,12.6776626 109.063874,12.9320298 109.063874,12.9320298 C109.173034,13.0115196 109.5425,12.7611268 110.018327,12.4272698" id="Fill-45" fill="#EBF4FD"></path>
                    <path d="M113.971711,10.9262135 C114.757584,10.7210424 114.996903,10.6676416 115.258861,10.7575797 C115.258861,10.7828748 115.252393,10.8109804 115.239456,10.8362755 C115.009839,10.9599403 114.75435,11.0330149 113.978179,11.2494283 C111.869583,11.831215 111.332732,12.0420073 111.196902,12.1150819 C110.721497,12.3736538 110.676221,12.8598813 110.879966,12.9385771 C110.941412,12.9610616 110.941412,12.9610616 112.286775,12.6237939 C112.823626,12.4860763 113.399286,12.5984989 113.932903,12.429865 C115.239456,12.0223333 116.351967,11.2803445 117.613244,10.794117 C118.399117,10.4905761 119.265841,10.4006381 120.029075,10.066181 C120.084054,10.0436965 120.151969,10.0015381 120.194011,9.96500073 C120.151969,9.9284634 120.151969,9.9284634 119.582777,9.81885142 C119.573075,9.8047986 119.569841,9.78512466 119.560139,9.77107184 C119.686266,9.70080775 119.82533,9.6502176 119.957926,9.59400633 C121.038096,9.1555584 121.044565,9.11902107 121.060735,9.02346191 C120.944309,8.99816684 120.814947,9.02908304 120.714692,8.95038726 C120.879628,8.75083724 121.290352,8.68619427 121.203033,8.34611607 C121.439118,8.11002873 121.804565,8.02571182 122.014778,7.76995052 C121.946863,7.76995052 121.849841,7.7643294 121.785161,7.77276109 C120.478607,8.05662802 115.731031,9.60524859 115.265329,9.866631 C115.520818,9.90316833 115.747201,9.8047986 115.989754,9.77107184 C115.637244,10.0296437 114.663797,10.2235726 114.243371,10.3022684 C112.800987,10.5861353 112.070094,11.3000185 112.063626,11.3056396 C112.215626,11.3815248 113.793839,10.9739931 113.971711,10.9262135" id="Fill-47" fill="#EBF4FD"></path>
                    <path d="M98.1911346,22.4403913 C98.3096023,22.4403913 111.398686,21.2507938 114.866268,18.2059907 C115.810808,17.3817695 113.486279,17.2628098 113.467068,17.2628098 C112.259978,17.234486 106.381417,19.0273794 105.16152,19.4635652 C104.072897,19.8516005 103.22121,18.9594024 103.451742,18.7243153 C103.554201,18.6223498 103.7271,18.571367 104.13053,18.4694015 C106.253344,17.9397474 105.199942,17.3449487 104.972612,17.3364515 C104.418695,17.3081278 103.948026,17.5998624 103.419724,17.6565099 C102.795367,17.7216545 102.196625,17.5177235 101.581873,17.5772034 C101.396167,17.5941977 100.775012,17.665007 100.384389,17.755643 C100.057802,17.8746028 99.033216,18.8234484 99.0428215,19.0528708 C99.3085735,19.047206 99.3245826,19.047206 99.8496828,18.8914254 C100.429214,18.7101534 101.239277,18.4637368 101.408974,18.5600375 C101.735561,18.7498067 100.691764,19.9280747 100.640535,19.976225 C99.996967,20.5030468 99.1004545,20.701313 98.5145195,21.2932794 C97.3650623,22.4545532 97.8293277,22.4460561 98.1911346,22.4403913" id="Fill-49" fill="#EBF4FD"></path>
                    <path d="M360.540059,205.004747 C360.175152,204.225734 360.175152,204.225734 360.439952,197.762816 C360.259113,199.81133 360.259113,199.81133 360.14286,200.71537 C359.652011,186.71238 359.858684,185.433261 360.149318,183.657241 C360.969552,184.891479 361.305395,195.246253 361.179454,201.205859 C360.911425,203.648688 360.811318,204.033386 360.540059,205.004747 M361.715512,185.093445 C361.41842,179.877588 361.166537,172.908151 360.627249,167.711529 C360.394742,166.147092 360.18484,164.7173 359.981396,163.374065 C358.725212,159.248184 358.612188,158.584581 356.148258,143.975693 C356.174092,144.030191 356.216072,144.110337 356.245136,144.16163 C350.212867,124.285592 350.212867,124.285592 350.11276,123.323848 C350.141823,123.355906 350.167658,123.381553 350.193492,123.410405 C348.071864,117.191128 347.086938,115.068881 344.203204,108.872045 L337.751131,96.3341118 C335.975035,94.0002803 333.911534,91.935737 330.869565,90.0058378 C333.70809,91.797887 335.984722,93.8528129 337.751131,96.3341118 C335.267825,92.3044054 332.08054,86.8513182 329.435771,82.9274036 C318.104278,67.5715613 317.891146,67.2798324 310.864264,59.7750251 L303.36268,52.2381598 L303.343304,52.2125133 C303.059129,51.9560483 302.781412,51.7027891 302.487549,51.4559415 C302.813704,51.8887262 302.936416,52.0554285 306.055887,55.2644468 C305.487536,54.9438656 305.009605,54.5078751 304.483235,54.1360008 C305.358366,55.722878 306.937477,56.6108881 308.171056,57.8483318 C308.087095,57.9060364 307.970842,57.9829759 307.886881,58.0406805 C302.649012,53.7993905 298.195854,48.7053543 292.909546,44.5281805 C295.551086,46.1599391 297.637191,48.5803276 300.508009,49.891505 C299.833092,48.6700904 291.798679,41.7743875 286.505912,38.600633 C282.705066,36.3213003 282.298179,35.9398086 281.894521,35.574346 C282.114111,35.641668 282.398286,35.7506657 282.60173,35.84684 C282.185155,35.5134355 281.952648,35.3274984 280.893448,34.6959533 C280.815946,34.7632754 280.702922,34.8498323 280.618961,34.9139486 C280.279888,34.7857161 279.634035,34.5420743 277.099061,32.8333762 C277.32511,32.9199331 277.625431,33.025725 277.854709,33.0898412 C277.425217,32.0864219 272.781533,29.9737914 272.439231,29.8744112 C272.652362,30.4033703 272.652362,30.4033703 273.424157,31.297792 C271.809524,30.7431864 270.995749,29.0537232 269.394033,28.4830885 C269.694355,29.210808 270.495213,29.5538299 270.801993,30.271932 C270.220725,31.5382279 270.220725,31.5382279 270.317603,32.3108288 C270.469378,33.4649213 274.205639,39.9951615 274.237932,40.0528661 C277.028017,44.3037736 276.914993,45.784859 276.895617,45.9419439 C276.35633,49.891505 276.35633,49.891505 274.163658,51.4463241 C273.362801,52.0169587 273.378947,52.2958644 273.811669,53.3345477 C273.869795,53.4756034 279.714766,67.0586313 285.114099,64.5805382 C286.848214,63.7790851 285.982771,60.9355293 285.562967,59.5634415 C286.011835,59.880817 295.673798,69.4213152 297.478957,72.4315732 C298.331483,73.8613656 299.145258,75.2110127 300.627491,75.2206302 C300.931042,74.6852595 301.079589,70.9152239 300.143102,69.1840851 C297.989181,65.2217007 298.486488,64.772887 299.571522,63.7790851 C299.610273,62.8237529 299.497248,62.4679077 296.694246,60.6277713 C294.753457,59.3518579 294.753457,59.3518579 292.118376,55.1330085 C291.114075,53.5236906 292.777146,51.4944112 291.291684,49.9652386 C287.413336,45.9643845 287.413336,45.9643845 287.297082,45.733566 C287.232497,45.5860987 287.148536,45.3873383 287.080722,45.2398709 C287.138848,45.1469023 287.216351,45.0282873 287.277707,44.9417303 C288.71473,45.4161906 293.529565,48.5771218 293.881555,49.5645121 C293.762072,49.5773353 293.603838,49.5901586 293.487585,49.6029818 C297.223845,57.8803899 297.223845,57.8803899 300.756662,61.1439071 C303.837382,63.9970803 308.529505,63.5610898 311.6296,66.3854107 C311.093542,66.3084712 310.647903,66.0167422 310.150596,65.8308051 C310.063406,65.8853039 309.943923,65.9590376 309.853504,66.0167422 C310.037572,66.3822049 310.292684,66.7091978 310.515503,67.0554255 C308.716802,66.5424955 306.995604,65.7634831 305.122629,65.5230471 C307.166755,68.3185157 310.08924,70.4054997 311.684497,73.5632251 C309.672665,73.4862856 309.530577,70.5754077 307.357281,70.7453158 C307.299155,70.844696 307.211964,70.9793401 307.14415,71.0819261 C307.166755,71.1171901 309.598392,75.5476231 309.850274,75.8617927 C310.17966,76.2721367 311.823356,78.3719439 311.710332,79.3048354 C310.473523,79.192632 310.473523,79.192632 310.234557,79.2535424 C310.063406,79.6350341 310.005279,80.0517897 309.843816,80.4332814 C309.905172,80.5166326 309.992362,80.6256302 310.053718,80.7121871 L310.014967,80.7057755 C304.321771,80.3082547 304.321771,80.3082547 304.28302,80.8532429 C304.050513,80.9975044 303.734045,81.1866474 303.495079,81.330909 C302.319627,80.6544825 300.818018,80.2377269 299.251824,79.9171456 L301.9967,80.3948117 C301.534915,80.0485839 300.298106,79.1285157 298.079601,79.2375133 C297.327182,79.2727773 297.152801,79.2823947 295.034403,76.8716236 C293.474668,75.1020151 291.643674,72.5277476 291.737323,70.3189427 C291.776074,69.408492 290.38749,65.5551052 289.354125,65.4429018 C289.228183,65.439696 286.276634,65.4236669 286.783629,66.8534593 C287.003219,67.4689753 290.787919,74.0344795 293.474668,77.1152654 C294.56616,78.3623265 294.617828,78.5290288 294.646891,78.6123799 C294.511262,78.7598473 294.482199,78.7919054 293.671653,78.9457844 C293.103302,79.0419588 292.341196,79.1669855 291.769615,79.2567482 C291.598464,79.4907725 291.378874,79.7985305 291.207723,80.0325549 C288.194818,79.9459979 288.194818,79.9459979 287.371355,80.7474511 C287.52636,81.5681391 287.813765,83.0876942 288.824525,85.8703396 C288.675979,86.1300104 288.485452,86.4666207 288.340135,86.7230857 C285.821308,86.6621753 285.821308,86.6621753 284.400431,87.1879285 C284.413348,87.3257785 284.413348,87.3257785 285.495152,89.9609564 C284.910655,90.3584772 284.048441,90.7784386 283.373524,90.9932281 C283.357378,91.6087441 283.192686,92.4390495 282.931115,93.0000667 C280.024776,92.859011 279.562991,92.5127832 278.297119,91.5959208 C278.610357,92.1505264 279.075372,92.8558052 279.453196,93.3655294 C279.362776,93.6476409 279.236835,94.0259268 279.149645,94.3080383 C278.568377,94.5548859 277.767519,94.843409 277.157188,94.9940822 C275.749228,94.0964547 275.749228,94.0964547 273.479054,94.03875 C273.359571,94.3016267 273.194879,94.654266 273.078625,94.9171427 C273.643747,95.4108378 274.399395,96.074441 274.974204,96.5777536 C274.741697,96.74125 274.425229,96.9624511 274.192722,97.1291534 C287.79116,100.879954 285.656615,114.440541 285.579113,114.562362 C279.243294,114.113548 273.139981,112.231736 266.836454,111.596986 C267.149693,112.135562 267.634083,112.815194 268.057117,113.273626 C268.047429,113.437122 268.751409,130.19711 270.921476,130.828655 C270.333749,135.999631 270.333749,135.999631 270.227184,136.474091 C274.628673,136.134275 275.545784,136.063747 277.434905,136.486914 C278.15826,139.442674 278.15826,139.442674 278.200241,139.503584 L288.514516,136.108629 C291.362728,135.752783 292.079625,132.171891 290.539265,129.76112 C292.182961,123.028913 292.263693,122.996855 296.510178,121.336244 C296.571534,115.905598 296.571534,115.905598 297.030089,115.530518 C298.996712,113.905171 300.530613,116.501879 302.368066,116.511496 C304.047284,113.558943 305.439097,111.641867 308.058032,113.885936 C308.190432,113.994933 322.58004,130.402282 324.000917,135.002623 C325.069804,138.474518 324.575726,138.545046 318.498248,139.372146 C319.689847,141.375779 323.367981,144.543121 323.397044,144.559151 C323.916956,142.92098 322.89005,141.346926 323.200059,139.718374 C323.471317,139.753637 323.832995,139.801725 324.101024,139.836989 C324.863131,138.711748 325.169911,137.368513 325.87712,136.217626 C324.969697,133.088753 324.969697,133.088753 324.995531,131.957101 C325.270019,131.889779 325.634926,131.793605 325.912642,131.719871 C326.284008,132.219978 326.771627,132.886787 327.149451,133.380482 C326.8459,131.909014 326.8459,131.909014 321.976167,126.096876 C322.043982,125.821176 322.131172,125.449302 322.195758,125.16719 C319.909437,124.154153 318.09459,123.355906 311.997736,110.975058 C312.28837,110.516627 312.882555,110.01652 313.392779,109.820965 L327.230183,125.959026 C327.278622,126.039171 327.278622,126.039171 331.395936,137.798092 L335.778049,147.768169 C335.855552,147.191123 335.90722,146.415316 335.90722,145.835064 C335.900761,143.465968 334.990108,141.273193 334.525094,138.990654 C333.026715,131.588433 333.026715,131.588433 333.762987,131.037033 C335.096674,131.32235 337.896448,132.97655 338.480945,135.130856 C338.768349,134.624337 339.088047,133.919059 339.278573,133.37407 C339.578895,133.35163 339.972866,133.329189 340.263499,133.31316 C341.170923,126.571336 336.323795,120.739963 337.166634,114.010962 C337.660711,113.837849 338.438964,113.88273 338.916896,114.100725 C338.800642,114.347573 338.642408,114.684183 338.526154,114.931031 C339.38191,115.924833 339.730671,116.181298 340.728514,116.777579 C341.015918,117.963729 341.015918,117.963729 340.696221,119.803866 C341.587498,120.797668 341.997615,122.086404 342.76618,123.150734 C346.040656,121.272128 341.154777,117.954112 342.123557,115.209936 C343.579955,114.902178 343.831838,115.379844 344.251643,116.495467 C344.106326,116.758344 343.919028,117.104572 343.773711,117.367448 C344.283935,118.178519 344.283935,118.178519 345.033125,121.079779 C344.871662,121.313803 344.655301,121.624767 344.490608,121.858792 C346.85766,127.63246 352.192407,132.130215 351.976046,139.013095 C351.737081,139.147739 351.404466,139.33047 351.159042,139.465114 C348.333435,137.586508 348.481981,131.373643 343.899653,132.563 C343.860902,133.101576 343.576726,133.832502 343.20859,134.223611 C342.662844,134.040879 341.923342,133.832502 341.367908,133.707475 C341.487391,134.223611 341.861986,134.874391 342.249498,135.239853 C341.196757,136.127863 339.77588,135.589287 338.642408,136.150304 C338.548759,136.769026 338.497091,137.608949 338.522925,138.230876 C338.784496,138.307816 339.133256,138.410402 339.391598,138.484136 C339.850153,141.93359 340.696221,148.348421 344.981457,151.929314 C345.181671,151.727347 345.443242,151.461265 345.643456,151.262505 C345.633768,150.980393 345.620851,150.611725 345.611164,150.332819 C347.006206,151.493323 347.461533,153.43284 349.079395,154.404201 C349.279609,153.865624 349.45399,153.112258 349.508887,152.541624 C349.896399,152.935939 350.532565,153.375135 351.052476,153.577101 C351.762915,166.637582 351.87271,168.64442 350.432457,172.170814 C348.543337,172.013729 348.233327,171.609797 347.626225,169.769661 C347.109543,169.78569 346.382958,170.071007 346.02128,170.442881 C339.7339,169.98445 340.30548,160.912 333.740383,160.806209 C332.51972,162.973338 333.485271,165.480283 332.642432,167.705117 C332.371174,167.814115 332.019184,167.955171 331.747926,168.067374 C330.388405,167.073572 315.963275,154.051562 314.933139,152.352481 C314.613441,151.820316 315.042934,150.861778 315.375548,150.339231 C316.16026,149.098581 316.16026,149.098581 315.559616,141.388602 C313.993422,140.362742 313.673725,140.192834 312.72755,139.686315 C311.461678,140.648059 311.461678,140.648059 306.181829,139.442674 C305.742648,139.865841 305.203361,140.487769 304.890122,141.013522 C298.04085,138.362315 292.49943,145.815829 285.688908,143.475586 C284.939718,143.41147 284.807318,143.405058 284.674919,143.401852 C282.743818,143.789755 282.091506,143.921194 279.998942,141.433483 C279.617888,141.170607 279.608201,141.170607 279.598513,141.170607 C279.336942,141.398219 278.962347,141.673919 278.745987,141.940002 C277.463968,143.494821 278.432748,145.697214 277.186251,147.264856 C275.620057,149.210785 272.694343,149.175521 271.257319,151.291357 C270.824598,151.91649 271.024812,153.041731 270.98929,153.795097 C270.556569,162.011594 270.556569,162.011594 268.328375,163.07913 C266.32623,164.040874 262.883833,166.688875 262.464029,167.365301 C261.220761,169.346493 252.088398,185.077416 252.088398,185.090239 C251.713803,189.289853 254.516806,192.832276 254.58462,196.938922 C254.649205,200.388377 249.692283,202.023341 251.258476,206.017784 C253.606153,211.99983 256.864482,217.549091 259.64488,223.329171 C260.813874,225.752766 269.594247,234.078261 271.260549,233.924382 C279.52101,233.148575 287.497297,230.058172 295.957973,230.965417 C296.232461,230.991064 296.555387,231.221882 296.76529,231.394996 C298.289503,232.664498 297.20124,234.953448 298.689932,236.235773 C300.14956,237.498863 302.054827,236.87373 303.695294,237.38666 C304.780327,240.650177 304.780327,240.650177 303.430494,243.795079 C317.658639,246.407816 326.629539,248.776912 333.113905,251.912196 C326.726417,248.831411 317.506864,246.375758 303.430494,243.795079 C299.681317,252.543742 299.681317,252.543742 300.259355,255.037864 C301.16355,258.981013 302.403588,264.382807 297.323953,276.237902 C294.982735,281.694195 290.506973,285.704667 287.419794,290.654442 C284.552206,295.257988 284.222821,300.84572 281.565136,305.532618 C271.237944,323.78972 270.940851,324.091067 269.281009,325.786942 C268.157224,326.931417 267.537205,327.566168 266.37144,330.207757 C271.664207,331.83631 277.887002,327.623872 279.931127,326.242167 L288.127004,320.510174 L298.496176,312.303294 C300.837394,309.8797 302.229207,306.718768 304.731888,304.423407 C307.596247,301.788229 311.419698,300.521933 314.248534,297.838667 C321.000929,291.423837 327.275393,278.683937 327.927704,277.09706 C330.54341,270.759169 339.485246,261.051968 342.139703,258.259705 C346.305456,253.668982 351.898544,241.618332 353.293587,236.899376 C352.231158,236.556354 352.231158,236.556354 350.371101,236.947463 C349.951297,236.367211 349.951297,236.367211 350.819969,228.82714 C351.146125,226.034877 350.50996,223.277878 350.458292,220.501645 C350.312975,213.285361 351.727393,206.110752 351.08154,198.881645 L349.153668,176.113964 C349.612224,176.822448 349.612224,176.822448 350.096614,180.114818 C350.584233,179.714091 350.987891,178.899815 351.133208,178.29071 C355.835019,195.47066 350.852262,212.695491 351.407696,229.894676 C353.306504,229.009871 353.306504,229.009871 354.149342,229.199014 C359.167621,218.449925 359.167621,218.449925 359.409816,217.068219 C359.364606,217.369566 359.30325,217.776704 359.254811,218.084462 C359.364606,217.520239 359.506694,216.766873 359.593884,216.193033 L359.690762,215.564693 L360.242967,211.592692 C360.469015,209.774996 360.749962,207.502075 361.176225,201.32768 C361.166537,201.651467 361.163308,201.959225 361.147161,202.25416 C361.392585,196.906864 361.747805,190.219539 361.715512,185.093445" id="Fill-51" fill="#EBF4FD"></path>
                    <path d="M355.863772,143.868054 C355.921965,144.103246 355.999556,144.420101 356.051284,144.65856 L356.995305,148.911612 C356.97914,148.843014 356.959743,148.767884 356.940345,148.702553 C357.273339,151.227598 357.76798,153.726512 358.256156,156.225425 C356.817493,146.883083 356.284056,144.962349 354.150309,137.184686 C353.765588,135.976061 353.403497,134.8491 353.064037,133.784204 C355.275375,141.418139 355.349733,141.734994 356.280823,145.756122 C356.148272,145.125677 356.002789,144.498499 355.863772,143.868054" id="Fill-53" fill="#EBF4FD"></path>
                    <path d="M352.490358,131.875747 C352.5806,132.112724 352.670842,132.346542 352.770752,132.57404 C352.490358,131.689325 352.122946,130.829887 351.926348,129.916735 C352.032704,130.204267 352.13906,130.498119 352.232525,130.791971 L349.999044,124.308272 L350.024827,124.393584 C349.750879,123.682652 349.689644,123.534147 349.602625,123.426717 C350.485704,125.982912 351.558936,129.221601 353.064037,133.784204 C352.89,133.19334 352.699848,132.56772 352.490358,131.875747" id="Fill-55" fill="#EBF4FD"></path>
                    <mask id="mask-2" fill="white">
                        <use xlink:href="#path-1"></use>
                    </mask>
                    <g id="Clip-58"></g>
                    <path d="M359.986862,163.99354 C359.803108,161.091183 359.463377,158.223295 359.121509,155.362301 C359.330903,157.575263 359.57662,160.194968 359.871481,163.352402 C359.909941,163.562667 359.948402,163.769486 359.986862,163.99354" id="Fill-57" fill="#EBF4FD"></path>
                    <path d="M252.878499,75.5697523 C252.861592,75.6201658 252.834541,75.6800319 252.80749,75.7272945 C252.063585,77.0758559 251.529326,79.6469449 251.525944,79.6721517 C251.339968,80.7056286 251.400833,81.1971604 251.772785,81.6193735 C252.405105,82.3314643 255.343529,82.0321341 257.480565,80.7528913 C258.021586,80.4283543 258.51865,80.0534038 259.093486,79.7824312 C259.763,79.4704976 260.662449,79.7005093 261.179801,79.0230777 C261.473981,78.6418256 261.352251,77.7532875 260.831518,76.3921227 C260.557626,75.6989369 260.243157,75.2704221 259.901637,74.8167005 C259.34709,74.0510453 259.309894,73.773771 259.685228,72.9766074 C259.844153,72.6363162 260.10452,72.0628625 259.901637,71.3507717 C259.702135,70.6481334 259.123918,70.1597525 258.66405,69.8761765 C258.440878,69.7312377 258.116265,69.5673938 257.866043,69.4571142 C257.186384,69.1546331 256.445861,69.0065435 255.766202,68.7166658 C255.269138,68.5024084 255.089925,68.3354136 255.012153,68.2503408 C254.951288,68.1936256 254.941144,68.1841731 254.876898,68.1873239 C254.690921,68.2282849 250.251162,69.2617619 253.044187,70.7111503 C253.220019,70.8025248 253.32146,70.8560891 253.713701,70.8875976 C253.612259,70.9821229 253.429664,71.0545923 253.307935,71.1113075 C251.468461,71.952583 251.032262,72.3653436 250.609589,72.7655008 C250.312027,73.0490768 249.987414,73.5406085 250.115906,74.2905095 C250.230874,74.5614821 250.386417,74.9364326 251.106652,75.2704221 C251.667962,75.5319422 252.2969,75.4279643 252.878499,75.5697523" id="Fill-60" fill="#EBF4FD"></path>
                    <path d="M77.0023377,26.7707808 C77.0051541,26.7638108 77.0136035,26.7603258 77.0164199,26.7568407 C77.0136035,26.7568407 77.0136035,26.7603258 77.0079706,26.7603258 C76.6474655,26.9903372 73.7042794,29.1022609 73.5550078,29.3462124 C73.7042794,29.3427274 73.8620004,29.3427274 77.0023377,26.7707808" id="Fill-62" fill="#EBF4FD"></path>
                    <path d="M341.729312,155.32403 C341.757691,155.313973 341.789222,155.293859 341.814448,155.28045 C341.804988,155.256983 341.814448,155.226812 341.801835,155.21005 C341.789222,155.189935 340.222087,153.044417 340.222087,153.041065 C339.941454,152.712532 339.648207,152.615314 339.540999,152.58179 C339.030182,152.451047 338.49414,152.464457 337.992783,152.266667 C337.103583,151.904611 337.103583,151.904611 337.027907,151.911316 C336.621145,151.934782 336.504477,152.296838 336.750426,152.746056 C337.273855,153.708187 340.786508,155.659268 341.729312,155.32403" id="Fill-64" fill="#EBF4FD"></path>
                    <path d="M308.383855,130.374715 C308.698966,130.762795 309.3659,130.57222 309.491332,131.261755 C309.607587,131.885454 309.390375,132.519549 309.543341,133.139783 C309.671833,133.645673 309.983885,133.739228 310.121555,133.773878 C310.488674,133.877827 312.348747,133.202153 312.391578,131.511234 C312.397697,131.32066 312.370163,131.067715 312.348747,130.880605 C312.260027,130.173746 312.024458,129.508466 311.929619,128.801607 C311.840898,128.046237 311.883729,127.280473 311.782771,126.528569 C311.632864,125.33661 311.253507,125.19801 310.880269,125.152965 C310.283699,125.173755 308.830517,125.797454 308.316549,126.881998 C308.007557,127.519558 307.934133,129.823781 308.383855,130.374715" id="Fill-66" fill="#EBF4FD"></path>
                    <path d="M297.79403,129.252825 C297.806073,129.246939 298.540661,128.43769 298.540661,128.396492 C298.609905,128.108104 298.08907,127.863858 297.179866,127.763806 C296.192387,127.669638 294.608808,127.875629 295.222972,128.573055 C295.569192,128.955609 296.860742,129.494128 297.39362,129.467644 C297.577267,129.455873 297.667585,129.376419 297.79403,129.252825" id="Fill-68" fill="#EBF4FD"></path>
                    <path d="M308.293265,121.53416 C308.159084,121.666786 308.027586,121.796465 308.075891,122.108874 C308.091993,122.22087 308.199338,122.453703 308.309367,122.598118 C308.320102,122.612854 309.581407,124.248579 309.669967,124.289841 C309.959799,124.136584 309.694119,121.666786 309.444542,120.387679 C309.441858,120.367048 309.039314,118.424809 308.789737,118.247974 C308.781686,118.250921 308.765584,118.250921 308.754849,118.253868 C308.741431,118.274499 308.698493,118.324602 308.679708,118.451334 C308.671657,118.486701 308.658239,118.536804 308.655555,118.572171 C308.556261,119.194042 308.749482,119.795281 308.749482,120.411257 C308.749482,121.095019 308.486487,121.348483 308.293265,121.53416" id="Fill-70" fill="#EBF4FD"></path>
                    <path d="M348.239961,159.589136 C348.239961,159.589136 349.176581,159.727862 349.264495,159.658499 C349.40651,159.543784 349.599244,157.871072 349.599244,157.855066 C349.602625,157.823052 349.602625,157.783035 349.602625,157.751021 C349.602625,157.569611 349.555287,157.55894 349.494424,157.542933 C349.223919,157.542933 348.99061,157.686994 348.713343,157.686994 C348.537515,157.684326 348.321112,157.63097 348.138521,157.537597 C347.891686,157.417546 347.732765,157.209458 347.45888,157.116085 C347.239095,157.041386 347.1478,157.137427 347.103843,157.18278 C346.843483,157.444224 347.120749,158.738108 347.756434,159.322356 C347.955931,159.506434 348.148665,159.567794 348.239961,159.589136" id="Fill-72" fill="#EBF4FD"></path>
                    <path d="M59.1591923,40.6829501 C59.174935,40.7025221 59.2064205,40.73188 59.2253117,40.751452 C59.2914312,40.744928 59.382739,40.7057841 59.4425614,40.6633781 C60.4941758,39.9163812 61.4041056,38.9834507 62.4494229,38.2234058 C64.3416991,36.8598919 66.3788084,35.7214556 68.2458963,34.3122737 C68.6772471,33.9828122 68.6772471,33.9828122 69.2282426,32.9161398 C69.2124999,32.8802579 69.1967572,32.831328 69.1810144,32.798708 C68.5229683,32.9389738 68.0380922,33.4152251 67.4713539,33.7316386 C67.9467844,33.3010552 67.9467844,33.3010552 68.0223495,32.9552838 C68.0003097,32.9422358 67.9688242,32.9259258 67.9467844,32.9128778 C67.8838135,32.9324498 67.7893571,32.9552838 67.7263862,32.9846417 C65.3933135,33.9958602 65.3933135,33.9958602 55.1259047,42.741269 C54.2317177,43.5045758 53.5232948,44.1080449 52.786535,45.7031605 C52.8117234,45.7162085 52.8526545,45.7325185 52.8778428,45.7455664 C55.3368573,44.5451522 57.059112,42.3628775 59.1591923,40.6829501" id="Fill-74" fill="#EBF4FD"></path>
                    <path d="M73.7544702,31.9345011 C74.015388,31.9618691 74.8561231,31.4658239 75.6710885,30.9800416 C78.9180656,29.0437546 80.5769874,28.2877133 80.5834298,28.2808713 C81.6303222,27.856667 82.7223115,27.5521979 83.7273282,26.9979956 C84.5229664,26.5601074 87.5251317,24.3330352 87.5541225,24.3125092 C88.1371611,23.881463 88.1758156,23.809622 88.2402397,23.6898869 C87.8182615,23.6590979 87.3350804,23.946462 87.328638,23.949883 C86.4105939,24.5040853 85.6149557,25.2669687 84.6936904,25.828013 C85.8307766,24.6340834 87.1611352,23.6727819 88.2660094,22.4412213 C88.2273549,22.4480633 88.182258,22.4514843 88.1436035,22.4549053 C88.104949,22.4788523 84.3490212,24.5246113 84.2330577,25.0822346 C84.1493063,25.4859128 83.6371344,26.5122134 80.7702598,27.2237817 C80.7509326,27.2032557 80.7283841,27.1758877 80.7058357,27.1553617 C80.773481,27.0629946 80.8540112,26.9740486 80.9313202,26.8953655 C80.9538686,26.8714185 80.9828595,26.8406295 81.0021867,26.8132615 C81.395174,26.3616893 82.7223115,26.0914301 82.1747062,25.4414398 C82.1006185,25.4551238 74.4148177,29.4063808 74.3503935,30.5353114 C74.3858268,30.5592584 74.3858268,30.5592584 78.0676668,28.3903433 C77.697228,29.0437546 77.0078896,29.2626988 76.486054,29.704008 C76.579469,29.704008 76.6020175,29.704008 77.5039555,29.1874367 C77.7455461,29.0471756 78.2029575,28.7871795 79.1306653,28.4348163 C78.2867089,29.0471756 75.5551251,30.5729424 74.0089455,31.2981948 C73.4613403,31.5581909 73.4516767,31.8968701 73.7544702,31.9345011" id="Fill-76" fill="#EBF4FD"></path>
                    <path d="M52.2773152,48.6832989 C52.8335938,48.8151213 53.261253,48.33805 53.7885923,48.363159 C53.8175316,48.3945452 53.8432555,48.4290701 53.8689794,48.4573178 C53.6278181,49.1007364 53.0007989,49.474233 52.6728196,50.0611563 C53.3062698,50.0705722 58.4639049,47.832731 61.3867792,45.5352558 C62.3257003,44.7976785 62.7147737,44.490093 63.2388975,44.2954981 C63.2710523,44.3143299 63.3160691,44.3425775 63.3482239,44.3645479 C63.1070627,44.8133716 63.1070627,44.8133716 63.0749078,44.9075304 C63.3257155,45.1460661 65.2807293,45.5572262 65.2968068,45.5572262 C67.1328477,44.9514712 67.1328477,44.9514712 68.9303028,42.9929678 C68.9881815,42.923918 69.0042589,42.9082249 69.0139054,42.8893931 C68.8241919,42.8548682 68.8241919,42.8548682 67.1167703,43.7525156 C67.3032683,43.1624537 69.0975079,41.8348144 70.329038,41.8913096 C70.7727747,41.91328 70.8595927,41.8850324 71.0203669,41.7720418 C71.0300134,41.7657646 71.9625035,40.937167 71.8081603,40.1870351 C70.8402998,39.6534684 70.4383644,38.6083056 70.9560572,37.9931346 C71.4062249,37.4501521 75.3773467,32.6951319 75.2840977,32.3090808 C75.1008151,32.2117833 74.8982397,32.1835357 74.7053107,32.1207631 C74.6828023,32.0642678 74.6506475,31.9889408 74.6281391,31.9355841 C74.6152772,31.945 74.5959843,31.9575545 74.5831223,31.9669704 C72.7470814,33.4829273 71.4930429,35.6015007 69.3418847,36.7973177 C69.1360937,35.9341952 70.0460755,35.657996 70.3097451,35.0396864 C70.2647283,35.0083002 70.1939877,34.9612208 70.1489709,34.9266959 C69.3032989,35.2342813 68.599108,35.8588681 67.6987727,36.0471858 C67.9495804,35.6611346 68.3836707,35.4163217 68.5926771,34.9894684 C68.5669532,34.9612208 68.5315829,34.9266959 68.505859,34.9015868 C67.3096993,35.2531131 66.4125794,36.1664536 65.2614364,36.5933069 C65.9720582,35.632887 67.1457096,35.202895 67.9560114,34.3523271 C67.2325277,34.4245155 57.8015154,40.3722141 58.0265992,41.4832881 C58.1423566,41.5272289 58.2870533,41.6025559 58.3899488,41.6716057 C58.2130972,41.9697753 58.2034508,41.9823298 57.0844626,42.6414416 C55.2098359,43.749377 55.1262333,43.9690809 55.1358798,44.2327256 C55.2291288,44.2766663 55.3738255,44.2954981 55.476721,44.2735277 C56.521753,44.0726556 57.3738561,43.3884348 58.4156727,43.1655923 C59.1520183,43.0055223 59.888364,43.3225237 60.6311406,43.1655923 C59.3127925,44.1573985 57.5539231,44.675272 56.8047156,44.8949759 C51.8753798,46.3450217 51.3994882,48.4730109 52.2773152,48.6832989" id="Fill-78" fill="#EBF4FD"></path>
                    <path d="M95.1570233,58.2158461 C95.3040361,57.783865 94.9110019,57.8038025 94.601975,57.8569695 C94.589974,57.8602924 93.2638587,58.1327728 92.9248292,58.5880144 C92.4477878,59.242632 92.5677982,60.1597611 92.7718159,60.3491682 C93.2698592,60.8143786 94.9560058,58.8139738 95.1570233,58.2158461" id="Fill-80" fill="#EBF4FD"></path>
                    <path d="M93.0687307,56.2427737 C93.1338398,56.2184709 93.3259115,56.1039006 93.4072979,55.9476684 C93.5668151,55.5935421 93.3161452,55.0102752 93.1338398,54.8262683 C92.8180608,54.5103321 92.3981073,54.3297971 92.101861,53.9895581 C91.5842439,53.4062911 91.3107859,52.6112428 90.7052715,52.0974124 C90.6173743,52.0210322 90.4839007,51.9307647 90.3862371,51.8682718 C89.7839782,51.4690117 89.0384794,51.5419201 88.4362205,51.1496036 C88.052077,50.8961603 88.0455661,50.3267807 87.6581671,50.080281 C87.6125908,50.0525063 87.5377154,50.05945 87.4856281,50.0733373 C86.9354565,50.3510835 85.079848,53.1389605 85.0017172,53.2535308 C84.7608136,53.6146007 84.4580564,54.111072 84.2399411,54.4860293 L82.2085381,57.9925745 C83.4130559,58.0967293 83.4130559,58.0967293 83.507464,58.7459609 C83.6279158,59.5687839 83.6279158,59.5687839 83.7418567,59.5514248 C83.9046294,59.5201783 84.2301747,59.2389603 84.8877763,58.6452779 C85.8383687,57.7912085 87.4335408,56.3608158 89.2956602,56.1386189 C90.5555207,55.9893304 91.7958484,56.718414 93.0687307,56.2427737" id="Fill-82" fill="#EBF4FD"></path>
                    <path d="M89.3019997,56.99533 C89.2785917,56.9980548 86.8792704,57.4830602 86.0951019,58.0498081 C85.6298677,58.3876771 85.5596436,59.3331652 85.8200578,59.5102739 C86.320404,59.8508676 89.3458898,58.1833209 89.8930521,57.4013177 C90.0686122,57.147916 90.1066502,56.875441 89.3019997,56.99533" id="Fill-84" fill="#EBF4FD"></path>
                    <path d="M82.7169737,205.463029 C81.7818639,205.88763 82.315356,207.529196 82.8938054,207.759885 C83.2804374,207.920364 85.7201151,208.428547 85.6691636,207.295164 C85.636195,206.623159 83.9428069,205.165474 82.7169737,205.463029" id="Fill-86" fill="#EBF4FD"></path>
                    <path d="M264.891974,75.0917789 C264.77051,75.1109204 264.789688,75.1984243 264.823784,75.3597597 L265.663381,75.4417947 C265.209487,75.1765483 265.030487,75.0917789 264.891974,75.0917789" id="Fill-88" fill="#EBF4FD"></path>
                    <path d="M143.014034,88.5706335 C144.213495,87.017753 144.741257,85.9824993 144.584528,85.493453 C144.520557,85.4712237 144.430997,85.4394674 144.363827,85.4521699 C143.708122,85.6681124 141.964906,87.144778 140.611915,88.7929273 C138.97745,90.7903953 137.864351,93.1371821 136.261872,95.1537039 C135.401459,96.2270651 134.217991,96.9860395 133.411954,98.1070351 C133.104892,98.5420957 133.351181,98.6627694 133.485521,98.7294575 C133.696626,98.8374288 133.696626,98.8374288 138.548843,99.2280306 C141.321995,99.4503244 143.359479,99.6948475 145.521706,100.282338 C145.771194,100.345851 146.097447,100.460173 146.350134,100.479227 C147.13698,100.526861 147.952613,99.7456575 148.720267,100.545915 C149.100896,100.942868 149.139279,101.673262 149.168066,102.155957 C149.193654,102.676759 149.446341,102.727569 149.590276,102.708516 C150.367526,102.619598 151.330293,101.133406 151.42625,99.8758581 C151.579781,97.8466338 150.028479,94.7059408 148.473978,93.0419134 C147.664742,92.1781434 147.664742,92.1781434 144.811626,92.7942146 C143.944816,92.9815765 143.752902,92.8037415 143.55779,92.0828747 C143.180359,90.7205316 142.841312,90.4855353 142.316748,90.2156072 C142.035275,90.0695285 142.035275,89.9774354 142.172813,89.7043316 C142.371124,89.3327835 142.751752,88.9072498 143.014034,88.5706335" id="Fill-90" fill="#EBF4FD"></path>
                    <path d="M256.56592,63.0417022 C256.725373,64.025773 255.954143,64.943181 256.354401,65.943124 C256.66029,66.0574032 257.311116,65.9843915 258.68436,64.9749253 C259.188751,64.6003434 259.618296,64.2797268 259.95998,64.4638433 C261.369019,65.2225302 259.735445,66.7049853 260.217056,67.7811144 C261.193296,69.9619425 262.342005,70.2571637 263.799856,70.6317455 C266.077749,71.2158392 266.367366,71.2888509 266.790404,71.5745489 C266.85874,71.9237354 266.650476,72.2919683 266.848978,72.6348059 C267.464009,73.6982374 268.544381,74.4220056 269.084567,75.5394022 C269.374185,76.688543 267.935858,76.01874 266.881519,75.5330534 C266.432449,75.3267159 266.432449,75.3267159 265.150321,75.2283088 C265.667728,76.6790198 267.343606,77.3837415 267.675528,78.951906 C267.857759,79.7931279 267.04748,80.2407214 265.889009,80.786722 C265.583121,80.929571 265.114526,81.1486062 265.286995,81.4882693 C265.374856,81.666037 265.885755,82.2406074 268.658276,82.1675957 C269.829763,82.1358515 272.273617,82.0691886 272.341953,82.846922 C272.397274,83.5579926 271.840817,83.5516438 271.001251,83.5357716 C270.184464,83.523074 269.933895,83.7452835 269.621499,84.0246327 C269.025993,84.5547612 268.934877,85.3769365 268.414216,85.9451581 C267.766643,86.6562286 266.888028,87.0911245 266.227439,87.7767997 C266.237201,87.8434625 266.250218,87.9323463 266.25998,87.9990092 C266.627697,88.0847186 266.627697,88.0847186 271.912408,87.4371365 C274.587305,87.110171 277.291489,87.313334 279.963131,86.9387522 C279.989164,86.9324034 280.034722,86.9324034 280.064009,86.9197057 L284.65559,85.4055063 C284.688131,85.3674132 284.691385,85.3007504 284.701148,85.2563085 C283.750941,84.3325516 282.533896,85.1483781 281.495828,84.7896684 C281.001199,83.4373646 282.283328,82.2025143 281.759412,80.8565593 C280.822222,78.4503473 279.845982,78.4947892 279.064991,78.5360567 C277.28498,78.628115 276.071189,76.1965076 276.071189,76.1711122 C276.084206,76.1361936 276.10373,76.0949261 276.126509,76.0631819 C276.23715,76.0282632 276.23715,76.0282632 277.629918,76.3298333 C278.257966,76.545694 279.123565,76.8409153 279.061737,76.5266475 C279.058482,76.5107754 279.045466,76.4917289 279.042212,76.4758568 C278.957604,76.3552287 278.798152,76.1298447 278.313286,75.7552629 C276.149288,74.1204355 273.44185,73.3109579 271.466592,71.409479 C270.519639,70.4984198 269.839526,69.3365813 268.687563,68.6223363 C266.689526,67.3811373 264.860703,67.1240091 263.943038,67.0827416 C263.93653,67.0795671 263.930021,67.0795671 263.923513,67.0795671 C265.088492,66.0637521 266.627697,61.0418162 263.484205,60.9211881 C262.914732,60.8989672 262.26716,60.9815022 261.844123,61.0354673 C259.862356,61.2894211 259.497893,61.333863 259.484877,60.8291299 C259.458844,59.8164892 261.229092,57.9181848 259.777749,57.829301 C259.738699,57.829301 255.869536,57.9023127 255.296808,59.2482677 C255.247996,59.3720701 255.313079,59.5625355 255.339112,59.6958612 C255.524598,60.8894439 256.370672,61.8512938 256.56592,63.0417022" id="Fill-92" fill="#EBF4FD"></path>
                    <path d="M3.60426184,112.922705 C4.14588054,111.873588 4.44323983,110.757068 4.94591863,109.696229 C5.24681791,109.063242 5.59727707,108.447837 5.88401638,107.808989 C5.91233631,107.735727 5.94773623,107.63902 5.97959615,107.565758 C5.99375612,107.542314 6.20615561,106.967936 5.86277643,107.032407 C5.80967656,107.044129 5.73887673,107.079295 5.69285684,107.102739 C4.55651956,107.870529 3.26088266,112.77032 3.48744212,113.06923 C3.53346201,113.034064 3.5794819,112.969593 3.60426184,112.922705" id="Fill-94" fill="#EBF4FD"></path>
                    <path d="M232.475893,38.6635715 C232.475893,38.5959143 232.492225,38.5089265 232.472627,38.4477129 C232.253789,38.0611007 231.616872,37.3394244 230.868903,37.0430217 C230.74152,36.9946951 230.574942,36.9334815 230.447558,36.8980421 C229.323972,36.5951958 228.121995,36.8626026 227.01474,36.424442 C226.227576,36.1119304 225.649451,35.3419276 224.702241,35.3902542 C223.621116,35.6512175 222.605315,36.0925998 221.520923,36.3438978 C220.47246,36.5855305 219.368471,36.5243169 218.336339,36.8690461 C217.676558,37.0881264 218.15343,37.8935687 217.634097,38.1899714 C217.078836,38.5089265 216.500712,37.9096775 215.945451,38.2286326 C215.867061,38.280181 215.749477,38.3510599 215.667821,38.4026082 C215.458781,39.3175906 216.291673,40.371109 215.279138,41.1765513 C214.968845,41.054124 212.600821,39.1339497 212.208872,38.3993864 C211.320455,36.7401754 207.561012,35.7092093 206.512549,36.5372039 C206.809777,37.3780856 207.845175,37.1976666 208.308981,37.8098027 C208.015019,39.0308531 206.548478,38.8343252 205.954022,39.6977593 C206.296977,39.939392 207.482622,39.7750818 208.145669,39.6526545 C209.314983,39.4464613 212.999302,40.7029512 210.941571,42.3782711 C211.823456,43.4446766 212.996036,42.5393595 213.988973,42.8164317 C215.027638,43.1031691 215.030904,43.4801161 215.040702,44.3822114 C215.282404,44.5851828 215.491444,44.6753924 217.56224,44.4595339 C218.914464,44.317776 219.37827,44.2823366 219.81268,44.3113325 C220.80235,44.3789896 221.72343,44.8107067 222.709835,44.8719203 C222.830686,44.8783638 222.993998,44.8848074 223.121381,44.8815856 C223.467603,44.8751421 223.957539,44.8686985 226.694648,44.2082359 C229.176991,43.6122086 232.962563,40.9059227 232.773121,40.1133675 C232.655537,39.5978845 232.204796,39.256377 232.051282,38.7570028 C232.168867,38.6474626 232.168867,38.6474626 232.475893,38.6635715" id="Fill-96" fill="#EBF4FD"></path>
                    <path d="M86.1939524,202.160009 C87.2959908,203.607884 94.2036468,204.121646 94.323145,203.317641 C94.3862134,202.877274 85.5400321,192.625387 85.4404503,192.562001 C84.5375755,191.934811 81.7824796,190.016544 76.6838925,191.05074 C73.8325343,191.994861 71.8408987,193.936481 71.8243017,194.003203 C72.1894349,194.353495 74.3702759,194.029892 76.1627479,192.999032 C78.7186802,191.527804 80.4281674,192.355161 80.5941371,192.808873 C80.4547226,193.065754 80.1061863,193.429391 79.2862964,192.962335 C79.2531024,192.982351 79.2165891,193.00904 79.1966728,193.032393 C79.2995739,194.270093 81.3509586,194.790527 82.7085902,195.137483 C85.2080928,195.771345 85.3773818,196.30846 85.8918877,197.893115 C86.1474809,198.687111 86.3167699,199.170848 86.841234,199.838072 C87.2096866,200.298456 87.475238,200.635403 87.4951543,200.902293 C87.551584,201.753003 86.5989183,201.712969 86.1939524,202.160009" id="Fill-98" fill="#EBF4FD"></path>
                    <path d="M96.7106953,209.623686 C97.3939886,210.030063 96.8537102,211.352454 97.8262113,211.455714 C99.5106087,211.635586 99.3199222,209.240625 100.76914,209.090732 C100.931223,209.070746 101.077416,209.08407 101.585913,209.174006 C104.176072,209.640341 108.641314,209.77691 108.657204,209.773579 C108.873316,209.736939 109.016331,209.693636 109.032221,209.480455 C109.076715,208.694348 108.447449,208.034818 108.64767,207.218733 C109.257867,204.687203 96.9395191,203.574662 96.1640607,203.7079 C95.9670179,203.767858 95.938415,203.784513 95.852606,203.864456 C95.8494279,204.060982 95.8494279,204.060982 96.0337582,204.237523 C97.8421018,205.989608 97.2573299,208.04148 97.1683429,208.131416 C96.9331629,208.344597 95.9543055,208.178049 94.6004314,207.948213 C92.1119726,207.525181 91.8704364,207.605124 91.7274215,207.651757 C91.7528464,207.69506 91.771915,207.771672 91.8132304,207.79832 C93.3355443,208.744312 95.1820252,208.717665 96.7106953,209.623686" id="Fill-100" fill="#EBF4FD"></path>
                    <path d="M122.264599,94.1056858 C121.268376,94.5214064 123.542039,95.7618628 124.008738,96.0032489 C127.0004,97.5756113 128.04449,95.8758507 128.053465,95.8557352 C128.418448,94.9471847 123.356556,93.9045307 122.264599,94.1056858" id="Fill-102" fill="#EBF4FD"></path>
                    <path d="M322.302873,293.271664 C318.801924,297.840311 318.715835,297.869349 316.423319,298.698545 C314.548494,299.372872 313.961814,300.237559 311.136822,304.396447 C309.73708,306.464598 309.21417,306.88081 307.817616,307.98748 C303.57694,311.352663 297.850433,318.747675 297.681443,319.354246 C299.221478,319.370379 299.221478,319.370379 305.059582,313.717647 C309.823169,309.10383 314.003264,303.947971 318.556411,299.137342 C318.53728,299.269626 318.53728,299.269626 318.138721,299.940726 C318.323652,299.811669 318.323652,299.811669 318.757285,299.253494 C319.828614,297.888707 323.112747,293.394269 323.642034,291.790726 C323.606961,291.771367 323.562322,291.748782 323.524061,291.735876 C323.163763,292.145635 323.163763,292.145635 322.302873,293.271664" id="Fill-104" fill="#EBF4FD"></path>
                    <path d="M175.045338,251.498706 C175.064688,251.735394 175.084039,251.972082 175.103389,252.20877 C175.084039,251.975281 175.064688,251.728997 175.045338,251.498706 M178.56707,291.636529 C178.431619,290.360333 177.99624,286.186306 177.325434,278.807395 C177.725338,283.115758 178.141367,287.401732 178.602546,291.911599 C178.589646,291.818843 178.573521,291.722889 178.56707,291.636529 M104.46879,245.709443 C107.767996,245.303235 111.131702,244.900225 114.659884,244.500414 C111.405829,244.874638 108.038898,245.274449 104.46879,245.709443 M21.5274793,96.1161677 C24.1171781,95.2749654 26.8487782,94.4721449 29.661004,93.7077064 C26.8584532,94.4721449 24.1300782,95.2781639 21.5274793,96.1161677 M204.905887,260.003485 C204.65756,258.704899 206.415201,256.916944 204.751086,256.082139 C203.5675,255.484022 202.396814,256.360407 201.226128,256.104528 C197.410918,255.282517 194.91152,251.994471 191.260787,250.881398 C185.820162,249.214986 180.202161,248.255439 174.68736,246.892883 C171.484906,245.725435 171.197878,242.053571 169.22416,239.942569 C165.857229,237.764399 163.341706,234.239666 159.823198,232.243809 C155.224306,229.643439 149.561154,230.532618 145.004187,227.791514 C141.392154,225.616542 138.970157,221.938281 135.103347,220.089555 C134.542191,219.820882 133.732709,219.5714 133.119953,219.481843 C114.405107,216.686364 99.621571,214.482606 97.9542307,229.192452 C92.4007297,225.280701 78.1299738,231.472974 79.4457858,222.331695 C80.2488182,216.798312 77.8655213,212.723438 77.833271,212.710644 C73.4988313,210.532474 69.0902158,212.793805 64.7170757,212.502742 C66.1586639,207.759385 66.1586639,207.759385 65.1073043,205.552428 C67.0003966,201.164103 67.0003966,201.164103 67.7002281,197.181986 C66.8713954,196.462326 59.5828286,190.631483 58.0283643,206.956564 C55.5160662,206.793442 53.9035514,210.289389 51.026825,208.651763 C44.2832882,204.823173 41.9838421,199.958273 41.21306,197.396284 C40.2616762,194.23298 42.9513509,191.754152 42.8836253,188.760367 C42.8416999,186.85087 40.2455511,185.92011 40.9228073,183.735543 C41.8064654,180.901683 47.0729388,175.579399 48.3081251,174.635845 C50.5140453,172.950242 59.0668238,174.866136 59.1345494,174.894923 C59.3635265,174.70941 59.6699044,174.45673 59.8956564,174.268019 C59.2442005,173.554756 58.2766916,173.311671 57.5349348,172.729546 C57.5962103,172.448079 57.673611,172.077055 57.7381116,171.795588 C59.4473773,170.813652 73.037652,169.643006 73.0989276,169.67499 C78.920106,172.755134 75.3693484,180.869698 80.9583247,184.08098 C87.5470602,177.181841 76.9625131,171.059936 78.1299738,164.109622 C79.3458099,156.92262 86.5860014,155.253009 90.6334135,150.65998 C90.5431127,150.650385 90.5398877,150.650385 90.5334376,150.653583 C90.356061,150.455277 90.1174088,150.186604 89.9368071,149.988298 C89.9722824,149.726022 90.0142078,149.380585 90.0464581,149.121508 C90.2980104,149.047943 90.6334135,148.945591 90.8881909,148.875224 C90.9204412,148.561772 90.9655916,148.145969 90.9946168,147.835716 C90.7398395,147.746158 90.4108865,147.618219 90.1625592,147.528661 L91.5041715,134.350891 C91.6073725,136.295572 91.6041474,142.231965 91.6009224,142.24156 C92.2265781,141.838551 92.2265781,141.838551 92.7877333,133.167451 C93.2747128,134.088615 94.1067704,134.821069 94.3325225,135.892562 C95.5225584,133.861522 95.1258797,131.197182 96.9641466,129.42522 C97.009297,129.377242 104.833219,125.164834 105.407274,125.206414 C106.136131,118.403231 106.136131,118.403231 109.980366,114.836917 C110.628597,114.868902 110.628597,114.868902 121.790424,108.455934 C121.677548,108.689423 121.529197,108.996478 121.419546,109.233166 C121.993601,109.447465 122.809534,109.652168 123.428739,109.632977 L123.428739,110.595722 C116.96578,115.143972 116.96578,115.143972 116.881929,116.474543 C121.258295,116.548108 134.729243,108.782179 132.323371,102.765824 C130.472204,103.997242 130.391578,106.258573 129.285393,107.918588 C127.843805,107.521975 126.673119,107.195729 125.69916,106.907866 C126.669894,106.706361 127.408426,105.676448 127.411651,105.663654 C127.418101,105.65086 127.424551,105.625272 127.427776,105.612478 C127.418101,105.602883 127.414876,105.590089 127.408426,105.580493 C127.324575,105.561302 127.29555,105.564501 127.037548,105.602883 C125.305707,105.871556 124.318848,105.500531 123.967319,105.324614 C123.109462,104.896017 122.977235,104.397053 123.038511,103.686988 C123.057861,103.40872 123.015936,103.38633 122.983685,103.363941 C122.97401,103.370338 122.95466,103.38633 122.938535,103.392727 C122.848234,103.536659 122.303204,104.88962 122.806309,105.890746 C121.122843,105.103918 120.835816,104.259518 120.181135,102.241272 C118.60087,101.668743 118.500894,101.540803 117.826863,100.72199 C120.19081,100.082293 121.89685,99.6249088 122.39673,97.2740203 C121.187344,96.0873813 121.187344,96.0873813 104.349464,106.533643 C115.940221,94.577695 115.940221,94.577695 127.84058,90.9985872 C130.549605,92.8377177 142.720867,86.8501485 144.578484,83.5045302 C143.978628,82.0492183 143.978628,82.0492183 144.855836,79.8998344 C144.69136,79.6471539 144.478508,79.3145112 144.314031,79.0682276 C143.340072,78.8603259 142.366113,78.6460272 141.385704,78.4509195 C140.556872,78.4445225 140.543972,78.447721 140.537521,78.447721 C139.944116,78.5052938 138.147775,78.6812106 134.961445,80.7442352 C134.851794,80.5075471 134.706668,80.1844999 134.600242,79.9446133 C135.574201,78.572462 136.03538,78.3933467 139.637738,77.0116 C132.649099,77.6033202 125.831387,78.1822465 118.336418,78.9306926 C125.225081,78.2110329 131.213961,77.6768854 139.682889,76.992409 C139.873165,76.8996529 140.144068,76.7781103 140.250494,76.605392 C140.41497,76.1799931 137.602745,73.7811273 134.068112,74.7022917 C133.27153,74.906995 133.27153,74.906995 132.852276,74.76946 C132.607174,74.0913806 133.165104,73.3397359 132.668449,72.6872444 C131.997643,71.8076603 130.678606,72.0315544 130.01425,71.1423748 C129.736897,70.7681517 129.927174,70.435509 130.459304,69.7094523 C131.233311,68.6347604 131.233311,68.6347604 129.530495,65.6217848 C125.247656,58.0285748 125.247656,58.0285748 123.148162,62.0010966 C122.819209,62.6184048 123.644816,63.2613008 123.109462,63.872212 C122.493481,64.5790778 121.380846,63.9297848 120.79389,64.7198113 C119.458728,66.5301554 119.458728,66.5301554 119.0814,66.6453009 C116.752928,67.3489683 115.127513,65.4714559 113.09897,65.0268661 C112.744216,64.3999625 113.544024,60.2707147 114.77921,59.2855805 C113.589174,58.8921665 112.337863,59.4646958 111.151052,59.0328999 C110.873699,58.9337468 110.699548,58.745036 110.331894,58.1245294 C110.206118,57.9134292 109.91264,57.4144651 106.984314,56.4581172 C106.329633,56.2406201 106.178056,56.2566125 105.687852,56.3013913 C103.011077,57.0146541 100.137576,56.4261324 97.5220767,57.5072212 C97.989706,59.9732553 94.938828,62.1898074 97.006072,64.7645901 C96.6093934,65.97042 95.0259038,66.376628 94.938828,67.7903596 C94.8388521,69.4311838 96.5126425,70.3907302 96.570693,71.9739816 C96.5771431,72.0379514 96.6932441,78.3901482 93.0005852,79.2377475 C92.1943278,79.4232598 90.356061,80.0021861 90.7462896,81.3455509 C90.572138,81.5758421 90.4753871,81.6590027 89.7336303,82.2251351 C88.7532213,85.9097931 91.1977937,90.512417 86.9601048,93.4230409 C85.6346176,91.4111921 83.280346,90.8322658 81.4485292,89.5304813 C82.4418383,86.6358498 82.0129094,85.5803488 81.4678794,84.2433809 C81.751682,84.0258837 82.2322114,83.6228743 82.512789,83.4021786 C82.4676386,83.2486512 82.512789,82.9320009 82.4676386,82.7784735 C82.1483606,82.7304962 81.7194317,82.7017098 81.3969288,82.7113052 C79.6521877,81.0416946 77.5462434,82.5545793 75.6757262,82.0492183 C73.7665087,81.5406587 72.7925498,79.621566 70.967183,78.9818684 C70.6511301,78.8763183 70.2222012,78.7643713 69.8964732,78.7131955 C68.2259079,78.4317285 67.035872,79.6503524 65.5910587,80.0597588 C65.0847291,79.6503524 65.0847291,79.6503524 64.4493982,75.8697398 C64.2236462,74.5551613 64.2236462,74.5551613 61.0889174,74.3088777 C60.3794109,70.2883786 70.2673516,63.0086203 74.4889154,59.8996901 C74.0019359,58.620295 72.5893729,59.1864273 71.7798905,58.5531268 C79.9940409,57.1042118 79.9940409,57.1042118 84.6735588,52.1625481 C81.4904546,52.712688 80.8293235,52.8278336 78.2460748,51.3725216 C81.3034029,50.2754403 85.2443891,52.188136 87.5664104,48.6442115 C87.3309832,48.4778901 86.9536547,48.3467521 86.6666271,48.3275612 C86.6795272,48.3115688 88.1985162,46.4852322 89.7949058,47.4927559 C95.1258797,45.5832587 95.1258797,45.5832587 96.5255426,44.3646348 C96.8286954,44.1023588 97.1866737,43.6961508 97.3963006,43.3571111 C97.9671308,42.3975648 97.0221971,41.3676517 97.5382019,40.4049069 C98.0122812,39.5221242 99.1378166,39.6052849 99.7634723,38.9495949 C100.111776,38.5114021 100.169826,37.9484682 100.418153,37.4654966 C100.373003,37.4207178 95.8837617,32.8788651 94.3744478,39.317421 C91.6138225,40.8942755 89.6304293,47.3104421 86.2731735,44.3358484 C86.5666512,42.3591829 90.5979382,41.0829863 88.7145209,39.1255118 C86.5763263,39.9251337 85.7184684,42.0617236 84.1382039,43.4434703 C83.7576504,42.3783739 85.9377704,39.5605061 85.9603456,39.5317197 C85.8474696,39.4901394 85.8474696,39.4901394 83.935027,39.4133757 C87.2439074,34.1294738 87.2439074,34.1294738 87.2471324,33.4865777 C87.0987811,33.3746307 86.8956042,33.2306987 86.7472529,33.1251486 C88.6371202,30.2273187 88.6371202,30.2273187 97.4543511,25.0745548 C96.8415955,25.004188 96.8415955,25.004188 95.8547364,25.1801049 C88.7983717,26.8177306 79.2522841,39.9539201 79.1813334,40.0786611 C79.2522841,40.2289901 79.349035,40.4208993 79.4232106,40.5712283 C80.1746425,40.5680298 80.9131743,40.4049069 81.6646062,40.3601281 C81.6968565,40.4944645 81.7387819,40.6767783 81.7774822,40.8143133 C80.2133429,41.5883474 79.9650156,41.7258824 79.245834,42.4071603 L79.2297089,42.7813833 L79.239384,42.7813833 C79.3716102,42.8101697 79.5554369,42.8485516 79.6908881,42.8805365 C78.1847993,45.4457237 74.8984941,46.3189109 73.6697578,49.1463741 C72.5184223,47.9597351 72.5184223,47.9597351 74.672742,45.6760148 C73.4375557,45.3593645 73.4375557,45.3593645 69.4159438,48.5002795 C69.1966418,48.6729979 67.8550295,49.5205972 62.8917089,49.2871076 C62.569206,48.8233268 62.6304815,48.2060187 62.2854034,47.7486349 C58.2734665,48.772151 57.0802056,51.0814592 54.7001338,55.6872817 C54.2583047,54.5262306 55.2870891,53.5634858 55.1516379,52.444015 C52.987643,52.7894517 51.2171018,54.54862 48.8499301,54.1967864 C49.8400141,53.230843 51.4331788,52.8758109 51.8072822,51.2989564 C51.681506,51.2317881 51.5202546,51.1422305 51.3944784,51.0750622 C50.8623485,51.3629261 50.7817228,51.407705 49.2433837,51.2445821 C49.0692321,50.9982985 48.8015546,50.6944422 48.5758025,50.4961359 C47.4792925,50.7232286 46.8600868,51.65079 46.0022289,52.2297163 C46.1602554,51.932257 46.4053576,51.5516369 46.6117595,51.2925594 C46.0183541,51.7179583 46.0183541,51.7179583 45.0572953,52.6391228 C45.5603999,51.6028127 45.5603999,51.6028127 47.0761638,49.7444913 C44.4638898,52.1305632 44.4638898,52.1305632 39.6843959,56.1542609 L39.6682708,56.1638564 C41.1808097,54.7309338 42.8126747,53.4323478 44.3477887,52.0250131 C44.3284386,52.0346086 40.9163573,54.5742079 36.6496431,58.7994103 C36.7947694,58.5403328 37.0205215,58.2108886 37.2075732,57.9837959 C34.563049,60.9264047 31.0477667,64.8477508 28.4000174,67.7871611 C16.9866376,82.5257929 16.7737857,82.8072599 11.7266144,91.1169312 L11.7653147,91.0529615 C11.8459405,90.9378159 11.9459164,90.7842885 12.0200921,90.6659444 C8.64026105,99.1067538 8.64026105,99.1067538 8.22745726,101.409665 C8.01138028,102.078149 7.72112762,102.967329 7.49537555,103.635813 C7.65017697,103.888493 7.85335383,104.224334 8.01138028,104.477015 C6.94067046,107.835427 6.94067046,107.835427 5.78288483,113.58311 C5.49908223,114.958459 5.81836016,116.218664 6.24728909,117.466074 C6.07958755,117.405303 5.80868507,117.341333 5.39588128,117.312546 C5.2023795,117.296554 5.09917856,117.264569 5.03145293,117.191004 C4.97017737,117.127034 4.94437714,117.104645 4.82827607,116.695238 C4.77345057,116.487337 4.56382364,115.796463 4.38644702,115.758081 C4.38322199,115.76128 4.37999696,115.764478 4.3735469,115.764478 C4.37032187,115.777272 3.94461796,117.750739 4.42514737,119.369174 C4.81860098,120.706142 5.77320974,120.52063 5.78933489,120.517431 C6.03766217,120.440668 6.2698643,120.194384 6.42144069,119.839352 C6.55044187,119.522702 6.57301708,119.167669 6.57624211,119.014142 C6.58914223,118.793446 6.53431673,118.579148 6.52141661,118.358452 C6.51819158,118.336063 6.5310917,118.313673 6.5310917,118.291284 C6.99872099,119.58987 7.46635028,120.891654 7.38894957,122.289393 C6.92777034,122.030316 6.30533963,121.70407 5.83126027,121.473779 C0.142308066,128.500857 -1.84431017,163.760987 1.94509961,170.343474 C2.43530411,170.423437 2.43530411,170.423437 10.6817048,187.180314 C10.0947494,187.186711 9.31429224,187.209101 8.72733685,187.241086 C9.723871,189.310507 16.9995378,198.634099 17.0640384,198.710863 C17.7283945,197.751317 18.4121007,196.756587 15.0709701,192.045214 C13.5455311,189.905426 11.8298153,187.480972 8.91438857,175.764911 C12.561897,178.410061 12.9489006,180.137244 13.4358801,182.321811 C13.7809582,183.879475 14.1711868,185.638643 14.8710182,186.738923 C16.3577569,189.096209 18.1831236,191.210409 19.7698382,193.500526 C21.817732,196.468723 25.3168891,198.131937 27.0358299,201.394394 C28.4258176,204.023551 27.7614615,207.541888 30.6188378,209.534546 C31.0058413,209.806417 31.621822,210.020716 32.063651,210.193434 C32.8699084,210.503687 33.8922428,211.073018 34.7372005,211.290515 C37.6719775,212.038962 40.6841551,212.502742 43.6350572,213.209608 C46.6536849,213.938863 49.8690394,212.214878 52.8263916,213.884489 C59.6054038,217.716278 59.6054038,217.716278 61.9854756,217.972157 C62.3466789,218.00734 62.8239833,218.064913 63.1755115,218.11289 C73.8277843,219.590591 78.2396248,232.669208 89.9077819,232.256603 C95.0968545,223.668663 98.2960838,233.974191 99.4377443,238.797511 C99.7957226,240.323189 99.7957226,240.323189 96.8770708,246.675386 C96.8415955,246.780936 94.0164696,258.231523 95.2290807,260.371311 C95.4258075,260.723145 95.6741348,261.196521 95.8998868,261.532362 C99.727997,267.158502 115.433891,282.565618 115.559667,282.674367 C119.394227,285.956015 124.58975,286.70766 128.633937,289.586299 C131.717066,291.780461 134.022962,296.088824 135.132372,301.727759 C135.183972,301.980439 141.205103,328.758179 151.679999,343.384864 C164.963896,361.926498 177.818864,359.876267 177.934965,359.837885 C165.560526,353.517673 165.560526,353.517673 166.727987,348.320131 C165.009046,346.500191 165.009046,346.500191 161.761441,337.633983 C162.264546,337.47086 162.264546,337.47086 164.599467,337.544425 C164.576892,337.304539 164.576892,337.304539 161.761441,333.427971 C163.931886,331.512077 163.931886,331.512077 163.770635,329.980001 C163.935111,329.884047 164.147963,329.746512 164.315665,329.647359 C168.156675,330.814807 169.443462,327.661098 168.446928,326.221778 L167.318167,324.648122 C176.054772,324.411434 179.776457,303.442148 179.805482,303.231048 C181.060018,300.553913 184.355999,298.967464 185.713736,298.407728 C188.816215,297.131532 188.85814,293.520439 191.047935,291.543773 C192.034794,290.654594 192.921677,290.635403 193.660209,290.731357 C194.940546,290.891282 195.040522,290.904076 195.208223,289.707841 C195.562976,287.078684 195.321099,284.436733 195.4501,281.801179 C195.524276,280.326677 194.643843,278.813792 195.630702,277.371274 C196.772363,275.711259 197.194841,275.090752 196.391809,273.996869 C196.243458,273.795364 196.082206,273.48831 196.024156,273.248423 C203.335298,270.606472 205.934672,262.747787 205.947572,262.677421 C205.954022,262.587863 205.960472,262.466321 205.941122,262.376763 C205.783095,261.509973 205.070364,260.876672 204.905887,260.003485" id="Fill-106" fill="#EBF4FD"></path>
                    <path d="M112.824839,209.796738 C111.90413,210.30775 113.09338,211.285972 114.214757,211.441709 C115.011525,211.551211 117.570035,211.256771 117.679222,211.042633 C117.738242,210.93313 117.546427,210.672758 115.65189,210.18608 C113.553735,209.648302 113.246831,209.709136 112.824839,209.796738" id="Fill-108" fill="#EBF4FD"></path>
                </g>
            </g>
        </g>
    </g>
</svg>